<?xml version="1.0" encoding="UTF-8"?>
<!DOCTYPE svg PUBLIC "-//W3C//DTD SVG 1.1//EN" "http://www.w3.org/Graphics/SVG/1.1/DTD/svg11.dtd">
<!-- Creator: CorelDRAW 2019 (64-Bit) -->
<svg xmlns="http://www.w3.org/2000/svg" xml:space="preserve" width="720px" height="720px" version="1.1" style="shape-rendering:geometricPrecision; text-rendering:geometricPrecision; image-rendering:optimizeQuality; fill-rule:evenodd; clip-rule:evenodd"
viewBox="0 0 720 720"
 xmlns:xlink="http://www.w3.org/1999/xlink"
 xmlns:xodm="http://www.corel.com/coreldraw/odm/2003">
 <defs>
  <style type="text/css">
   <![CDATA[
    .fil0 {fill:#FEFEFE}
    .fil1 {fill:#00913F;fill-rule:nonzero}
    .fil2 {fill:#2B2B2A;fill-rule:nonzero}
    .fil3 {fill:white;fill-rule:nonzero}
   ]]>
  </style>
 </defs>
 <g id="Layer_x0020_1">
  <metadata id="CorelCorpID_0Corel-Layer"/>
  <circle class="fil0" cx="360" cy="360" r="360"/>
  <path class="fil1" d="M360 84.58c152.11,0 275.42,123.31 275.42,275.42 0,152.11 -123.31,275.42 -275.42,275.42 -152.11,0 -275.42,-123.31 -275.42,-275.42 0,-152.11 123.31,-275.42 275.42,-275.42z"/>
  <path class="fil2" d="M55.59 376.64l-28.57 -9.5 -1.2 -17.14 1.16 -0.08 0.09 1.37c0.09,1.24 0.37,2.22 0.86,2.93 0.33,0.5 0.85,0.88 1.55,1.15 0.52,0.19 1.82,0.21 3.91,0.07l27.76 -1.95c2.15,-0.15 3.49,-0.36 4.01,-0.62 0.53,-0.27 0.97,-0.77 1.32,-1.5 0.36,-0.73 0.5,-1.69 0.42,-2.87l-0.1 -1.37 1.15 -0.07 1.53 22 -1.14 0.08 -0.1 -1.38c-0.09,-1.24 -0.38,-2.21 -0.86,-2.94 -0.33,-0.49 -0.85,-0.88 -1.58,-1.13 -0.51,-0.2 -1.82,-0.22 -3.94,-0.07l-31.21 2.18 39.55 13.46 0.05 0.75 -37 19.08 29.67 -2.08c2.06,-0.14 3.34,-0.29 3.81,-0.42 1.01,-0.34 1.82,-0.99 2.4,-1.94 0.6,-0.95 0.83,-2.38 0.69,-4.32l1.15 -0.07 1 14.42 -1.14 0.07 -0.03 -0.42c-0.04,-0.94 -0.27,-1.8 -0.64,-2.58 -0.37,-0.79 -0.85,-1.38 -1.41,-1.75 -0.57,-0.38 -1.35,-0.63 -2.34,-0.8 -0.23,-0.03 -1.28,0.03 -3.17,0.15l-26.66 1.87c-2.13,0.15 -3.45,0.36 -3.96,0.61 -0.51,0.28 -0.94,0.78 -1.3,1.5 -0.35,0.74 -0.49,1.7 -0.41,2.87l0.09 1.34 -1.14 0.09 -1.21 -17.22 26.94 -13.77zm12.03 -95.63l0 0 -3.61 14.47 3.56 2.72c1.19,0.9 2.22,1.44 3.08,1.67 1.15,0.28 2.12,0.02 2.88,-0.77 0.47,-0.45 1.04,-1.74 1.74,-3.83l1.11 0.28 -3.4 13.62 -1.11 -0.27c0.14,-1.52 -0.16,-2.89 -0.94,-4.08 -0.75,-1.2 -2.52,-2.89 -5.29,-5.05l-29.04 -22.81 0.14 -0.57 37.28 -6.39c3.54,-0.62 5.83,-1.28 6.88,-1.98 0.8,-0.53 1.41,-1.41 1.82,-2.64l1.11 0.28 -4.94 19.83 -1.11 -0.28 0.2 -0.81c0.39,-1.6 0.45,-2.78 0.16,-3.53 -0.21,-0.52 -0.61,-0.86 -1.22,-1.02 -0.36,-0.08 -0.74,-0.11 -1.16,-0.08 -0.19,-0.01 -1.03,0.1 -2.49,0.33l-5.65 0.91zm-2.5 0.47l0 0 -15.62 2.58 12.53 9.81 3.09 -12.39zm2.91 -78.01l0 0 -1 -0.57 11.22 -19.45 1 0.58 -0.68 1.19c-0.63,1.08 -0.94,2.04 -0.93,2.91 -0.01,0.6 0.21,1.21 0.67,1.82 0.32,0.46 1.39,1.22 3.23,2.27l17.89 10.34c3.51,2.02 5.86,3.85 7.05,5.47 1.19,1.61 1.79,3.62 1.84,6.03 0.04,2.41 -0.67,4.87 -2.13,7.38 -1.77,3.08 -4.01,5.1 -6.73,6.06 -2.72,0.96 -5.05,0.89 -7.02,-0.25 -1.25,-0.73 -2.04,-1.7 -2.38,-2.93 -0.34,-1.22 -0.19,-2.39 0.46,-3.51 0.63,-1.09 1.51,-1.81 2.64,-2.16 1.14,-0.33 2.22,-0.21 3.24,0.38 0.5,0.29 0.91,0.61 1.22,0.96 0.14,0.16 0.42,0.72 0.86,1.63 0.44,0.91 0.82,1.45 1.13,1.64 0.46,0.26 1,0.26 1.61,-0.01 0.91,-0.39 1.68,-1.14 2.31,-2.23 0.44,-0.78 0.61,-1.53 0.5,-2.26 -0.1,-0.72 -0.51,-1.44 -1.22,-2.14 -0.72,-0.68 -2.99,-2.12 -6.8,-4.32l-19.55 -11.29c-1.87,-1.08 -3.1,-1.66 -3.68,-1.72 -0.59,-0.06 -1.23,0.11 -1.93,0.51 -0.7,0.41 -1.35,1.11 -1.93,2.13l-0.89 1.54zm50.75 -69.15l0 0 12.36 11.93 0.58 -0.6c1.86,-1.92 2.6,-3.89 2.24,-5.93 -0.38,-2.03 -1.64,-4.31 -3.75,-6.83l0.82 -0.85 15.9 15.36 -0.82 0.84c-1.92,-1.48 -3.69,-2.48 -5.35,-2.97 -1.67,-0.49 -3.05,-0.54 -4.18,-0.15 -1.1,0.4 -2.36,1.32 -3.76,2.77l8.56 8.26c1.67,1.61 2.75,2.53 3.27,2.74 0.51,0.23 1.07,0.26 1.69,0.1 0.61,-0.16 1.33,-0.67 2.18,-1.54l1.74 -1.81c2.74,-2.84 4.28,-5.74 4.61,-8.73 0.35,-2.97 -0.47,-6.13 -2.44,-9.48l0.8 -0.82 8.34 10.68 -25.36 26.26 -0.82 -0.8 0.98 -1.01c0.84,-0.88 1.37,-1.74 1.57,-2.58 0.17,-0.59 0.1,-1.23 -0.21,-1.94 -0.18,-0.51 -1.05,-1.49 -2.57,-2.97l-19.99 -19.29c-1.37,-1.33 -2.25,-2.1 -2.64,-2.33 -0.66,-0.37 -1.33,-0.47 -2.01,-0.35 -0.97,0.17 -1.92,0.74 -2.87,1.72l-0.98 1.02 -0.83 -0.81 24.55 -25.41 8.98 8.66 -0.81 0.86c-2.62,-1.68 -4.78,-2.6 -6.49,-2.73 -1.71,-0.15 -3.48,0.28 -5.32,1.28 -1.08,0.58 -2.72,2.01 -4.94,4.32l-3.03 3.13zm102.33 -46.55l0 0 5.8 13.74 -32.79 18.18 -0.56 -1.01 1.23 -0.68c1.07,-0.59 1.83,-1.26 2.26,-2 0.34,-0.52 0.46,-1.16 0.37,-1.93 -0.04,-0.53 -0.57,-1.73 -1.6,-3.59l-13.47 -24.29c-1.04,-1.89 -1.8,-3.02 -2.26,-3.37 -0.46,-0.37 -1.09,-0.56 -1.9,-0.56 -0.8,-0.02 -1.72,0.26 -2.75,0.82l-1.24 0.69 -0.55 -1.01 19.7 -10.92 0.56 1.01 -1.62 0.89c-1.08,0.6 -1.82,1.26 -2.27,2.01 -0.32,0.52 -0.46,1.15 -0.39,1.93 0.04,0.54 0.58,1.74 1.61,3.6l13.04 23.52c1.04,1.88 1.82,3.03 2.32,3.42 0.51,0.4 1.14,0.56 1.93,0.45 0.54,-0.08 1.68,-0.62 3.42,-1.58l3.08 -1.7c1.96,-1.09 3.41,-2.34 4.34,-3.75 0.91,-1.41 1.44,-3.13 1.56,-5.15 0.13,-2.03 -0.18,-4.71 -0.94,-8.1l1.12 -0.62zm64.74 -9.74l0 0 0.31 1.11 -21.33 5.72 -0.3 -1.12 1.35 -0.36c1.19,-0.32 2.09,-0.79 2.69,-1.4 0.45,-0.42 0.72,-1.01 0.81,-1.77 0.11,-0.52 -0.13,-1.82 -0.67,-3.87l-7.19 -26.83c-0.56,-2.08 -1.02,-3.36 -1.39,-3.83 -0.35,-0.46 -0.91,-0.8 -1.7,-1 -0.77,-0.21 -1.73,-0.16 -2.88,0.14l-1.35 0.36 -0.3 -1.11 21.32 -5.72 0.31 1.12 -1.36 0.36c-1.18,0.32 -2.09,0.79 -2.69,1.4 -0.45,0.42 -0.73,1.01 -0.84,1.78 -0.09,0.53 0.13,1.82 0.69,3.87l7.19 26.83c0.55,2.08 1.01,3.35 1.38,3.81 0.38,0.47 0.95,0.8 1.72,1.01 0.79,0.22 1.74,0.17 2.88,-0.13l1.35 -0.37zm64.42 -52.04l0 0 1.33 14.01 -1.28 0.09c-0.84,-3.47 -2.51,-6.2 -5.02,-8.19 -2.5,-1.98 -5.11,-2.87 -7.84,-2.68 -2.11,0.15 -3.75,0.83 -4.89,2.04 -1.17,1.21 -1.69,2.56 -1.6,4.05 0.07,0.91 0.36,1.73 0.84,2.43 0.66,0.92 1.7,1.83 3.09,2.68 1.02,0.62 3.35,1.67 6.99,3.16 5.1,2.09 8.58,4.15 10.45,6.17 1.86,2.04 2.88,4.44 3.07,7.22 0.24,3.52 -0.91,6.64 -3.48,9.37 -2.57,2.72 -5.97,4.24 -10.19,4.54 -1.32,0.09 -2.59,0.04 -3.79,-0.14 -1.19,-0.2 -2.72,-0.6 -4.55,-1.21 -1.02,-0.36 -1.85,-0.5 -2.49,-0.45 -0.54,0.04 -1.1,0.28 -1.66,0.73 -0.57,0.46 -1.02,1.13 -1.33,2l-1.15 0.08 -1.11 -15.9 1.15 -0.08c1.22,4.41 3.21,7.69 5.98,9.87 2.76,2.16 5.65,3.15 8.65,2.93 2.32,-0.16 4.12,-0.92 5.41,-2.28 1.29,-1.36 1.87,-2.88 1.75,-4.56 -0.06,-0.99 -0.4,-1.94 -0.99,-2.84 -0.59,-0.88 -1.46,-1.71 -2.59,-2.48 -1.14,-0.76 -3.12,-1.72 -5.95,-2.87 -3.96,-1.62 -6.83,-3.03 -8.59,-4.24 -1.78,-1.21 -3.17,-2.6 -4.19,-4.17 -1.01,-1.57 -1.59,-3.34 -1.73,-5.32 -0.23,-3.35 0.8,-6.29 3.1,-8.83 2.31,-2.53 5.33,-3.92 9.07,-4.18 1.37,-0.1 2.71,-0.03 4.01,0.21 1,0.18 2.22,0.56 3.65,1.14 1.45,0.57 2.46,0.84 3.01,0.8 0.54,-0.03 0.95,-0.24 1.23,-0.59 0.3,-0.36 0.53,-1.16 0.71,-2.44l0.93 -0.07zm157.84 35.75l0 0 19.06 10.56 -0.56 1.01 -0.95 -0.53c-1.43,-0.79 -2.5,-1.18 -3.2,-1.19 -0.7,0 -1.31,0.21 -1.83,0.6 -0.52,0.41 -1.37,1.67 -2.54,3.77l-10.02 18.08c-1.83,3.31 -2.79,5.63 -2.89,6.99 -0.09,1.34 0.24,2.68 0.99,4.03 0.75,1.34 1.99,2.5 3.74,3.46 2,1.11 3.95,1.61 5.86,1.48 1.91,-0.12 3.64,-0.77 5.22,-1.97 1.57,-1.19 3.44,-3.74 5.62,-7.67l8.35 -15.05c0.92,-1.66 1.39,-2.93 1.44,-3.84 0.05,-0.9 -0.11,-1.62 -0.49,-2.18 -0.58,-0.87 -1.62,-1.72 -3.12,-2.55l0.56 -1.01 12.78 7.08 -0.56 1.01 -0.77 -0.43c-1.04,-0.57 -2.01,-0.84 -2.93,-0.8 -0.92,0.04 -1.77,0.38 -2.53,1.05 -0.56,0.45 -1.27,1.43 -2.1,2.93l-7.77 14.03c-2.41,4.34 -4.43,7.31 -6.07,8.92 -1.64,1.61 -4.01,2.6 -7.12,2.99 -3.11,0.4 -6.59,-0.48 -10.42,-2.6 -3.19,-1.77 -5.42,-3.56 -6.7,-5.39 -1.73,-2.48 -2.58,-4.89 -2.56,-7.26 0.03,-2.36 0.89,-5.06 2.6,-8.14l10.02 -18.08c1.17,-2.12 1.8,-3.51 1.84,-4.16 0.05,-0.65 -0.13,-1.29 -0.54,-1.91 -0.4,-0.64 -1.39,-1.37 -2.96,-2.22l0.55 -1.01zm85.14 100.78l0 0 -11.76 9.15 -26.05 -26.97 0.82 -0.8 0.98 1.01c0.85,0.88 1.69,1.44 2.52,1.67 0.59,0.19 1.24,0.14 1.95,-0.14 0.51,-0.17 1.53,-1 3.06,-2.48l19.98 -19.29c1.55,-1.5 2.44,-2.52 2.68,-3.06 0.22,-0.54 0.24,-1.2 0.05,-1.98 -0.2,-0.77 -0.7,-1.6 -1.53,-2.45l-0.97 -1 0.83 -0.81 15.65 16.2 -0.84 0.81 -1.27 -1.33c-0.86,-0.88 -1.69,-1.44 -2.53,-1.67 -0.58,-0.19 -1.23,-0.15 -1.96,0.11 -0.52,0.19 -1.54,1.01 -3.06,2.49l-19.35 18.68c-1.55,1.5 -2.46,2.55 -2.71,3.13 -0.25,0.6 -0.24,1.25 0.07,1.98 0.22,0.51 1.03,1.47 2.41,2.9l2.44 2.53c1.56,1.61 3.14,2.68 4.75,3.22 1.59,0.52 3.4,0.58 5.37,0.18 1.99,-0.39 4.51,-1.4 7.59,-3l0.88 0.92zm35.82 59.05l0 0 -7.01 -13.15 -4.46 0.36c-1.49,0.12 -2.61,0.39 -3.4,0.81 -1.05,0.56 -1.6,1.4 -1.64,2.5 -0.04,0.65 0.39,1.99 1.28,4.01l-1.02 0.53 -6.58 -12.39 1.01 -0.54c0.91,1.22 2.05,2.03 3.42,2.4 1.36,0.39 3.8,0.46 7.31,0.21l36.84 -2.48 0.29 0.52 -23.43 29.7c-2.22,2.83 -3.49,4.85 -3.8,6.06 -0.23,0.94 -0.09,1.99 0.42,3.19l-1.01 0.53 -9.6 -18.04 1.02 -0.54 0.39 0.75c0.78,1.44 1.53,2.36 2.23,2.72 0.51,0.25 1.04,0.23 1.59,-0.06 0.33,-0.18 0.64,-0.41 0.93,-0.71 0.15,-0.12 0.69,-0.76 1.63,-1.92l3.59 -4.46zm1.53 -2.01l0 0 9.9 -12.38 -15.89 1.1 5.99 11.28zm29.17 85.93l0 0 29.52 5.95 3.27 16.87 -1.12 0.21 -0.27 -1.34c-0.23,-1.22 -0.64,-2.15 -1.21,-2.8 -0.39,-0.45 -0.95,-0.78 -1.68,-0.96 -0.53,-0.12 -1.82,0.02 -3.87,0.41l-27.34 5.32c-2.11,0.4 -3.41,0.78 -3.9,1.1 -0.5,0.33 -0.86,0.88 -1.13,1.64 -0.26,0.78 -0.28,1.75 -0.06,2.91l0.27 1.35 -1.13 0.21 -4.21 -21.65 1.13 -0.21 0.26 1.35c0.24,1.22 0.64,2.16 1.21,2.81 0.38,0.45 0.96,0.77 1.71,0.94 0.53,0.12 1.83,-0.02 3.92,-0.42l30.72 -5.97 -40.91 -8.54 -0.14 -0.75 34.41 -23.43 -29.2 5.68c-2.03,0.39 -3.29,0.69 -3.74,0.88 -0.96,0.46 -1.68,1.21 -2.14,2.22 -0.48,1.02 -0.53,2.46 -0.16,4.36l-1.13 0.22 -2.75 -14.19 1.12 -0.23 0.09 0.44c0.15,0.92 0.48,1.75 0.94,2.47 0.47,0.75 1.01,1.26 1.62,1.57 0.61,0.3 1.42,0.46 2.41,0.51 0.24,0 1.28,-0.18 3.14,-0.54l26.22 -5.1c2.1,-0.41 3.38,-0.77 3.86,-1.1 0.48,-0.33 0.85,-0.87 1.11,-1.64 0.26,-0.77 0.28,-1.74 0.06,-2.9l-0.26 -1.31 1.14 -0.23 3.29 16.94 -25.07 16.95zm-0.22 96.37l0 0 1.83 -14.8 -3.88 -2.27c-1.29,-0.74 -2.37,-1.16 -3.25,-1.27 -1.18,-0.15 -2.11,0.22 -2.77,1.1 -0.41,0.51 -0.82,1.85 -1.26,4.02l-1.13 -0.15 1.71 -13.94 1.14 0.15c0.05,1.52 0.51,2.85 1.42,3.93 0.89,1.1 2.85,2.55 5.88,4.36l31.59 19.1 -0.07 0.59 -36.22 10.89c-3.44,1.04 -5.64,1.97 -6.59,2.8 -0.72,0.62 -1.22,1.57 -1.48,2.84l-1.14 -0.14 2.49 -20.28 1.14 0.13 -0.1 0.84c-0.2,1.63 -0.11,2.81 0.26,3.52 0.27,0.49 0.72,0.78 1.35,0.86 0.36,0.04 0.75,0.02 1.15,-0.05 0.2,-0.02 1.01,-0.23 2.43,-0.65l5.5 -1.58zm2.43 -0.77l0 0 15.19 -4.46 -13.64 -8.22 -1.55 12.68z"/>
  <path class="fil2" d="M77 534.67l-1.01 0.57 -11.09 -19.2 1 -0.58 0.71 1.22c0.61,1.07 1.3,1.82 2.05,2.25 0.52,0.32 1.17,0.43 1.93,0.32 0.55,-0.04 1.74,-0.59 3.59,-1.66l24.16 -13.95c1.87,-1.08 3,-1.86 3.34,-2.34 0.37,-0.47 0.55,-1.1 0.55,-1.91 0,-0.8 -0.31,-1.74 -0.89,-2.76l-0.71 -1.21 1.01 -0.59 11.09 19.2 -1.01 0.59 -0.7 -1.22c-0.62,-1.07 -1.3,-1.82 -2.05,-2.24 -0.54,-0.33 -1.17,-0.46 -1.95,-0.36 -0.54,0.06 -1.74,0.61 -3.58,1.67l-24.16 13.95c-1.88,1.08 -3,1.86 -3.34,2.34 -0.35,0.48 -0.53,1.12 -0.54,1.92 0,0.82 0.29,1.74 0.89,2.77l0.71 1.22zm68.06 21.94l0 0 -4.97 33.24 13.33 -12.43c1.87,-1.73 2.88,-3.18 3.04,-4.32 0.19,-1.55 -0.52,-3.18 -2.16,-4.88l0.85 -0.79 9.55 10.24 -0.84 0.8c-1.39,-1.16 -2.43,-1.83 -3.12,-2.04 -0.69,-0.2 -1.45,-0.15 -2.28,0.17 -0.84,0.3 -2,1.15 -3.45,2.51l-25.84 24.08 -0.72 -0.77 6.26 -45.06 -19.71 18.39c-1.79,1.66 -2.61,3.19 -2.47,4.58 0.13,1.41 0.69,2.64 1.66,3.68l0.69 0.74 -0.85 0.79 -10.26 -11 0.85 -0.79c1.61,1.69 3.07,2.55 4.37,2.58 1.32,0.03 2.8,-0.72 4.45,-2.26l21.89 -20.41 0.21 -1.44c0.21,-1.42 0.21,-2.5 0,-3.26 -0.2,-0.73 -0.75,-1.59 -1.59,-2.56l0.85 -0.79 10.26 11zm26.07 79.19l0 0 0.6 -0.99 1.21 0.73c1.05,0.63 1.97,0.96 2.72,0.96 0.77,0 1.45,-0.19 2.06,-0.61 0.4,-0.28 1.16,-1.36 2.28,-3.23l14.38 -23.91c1.11,-1.86 1.7,-3.08 1.78,-3.67 0.09,-0.58 -0.06,-1.23 -0.45,-1.94 -0.39,-0.7 -1.1,-1.37 -2.12,-1.98l-1.2 -0.72 0.6 -1 16.27 9.78c4.35,2.61 7.48,5.3 9.41,8.08 2.37,3.38 3.51,7.05 3.42,10.98 -0.08,3.95 -1.24,7.76 -3.46,11.45 -1.54,2.57 -3.37,4.67 -5.48,6.33 -2.13,1.66 -4.26,2.8 -6.39,3.42 -2.16,0.62 -4.34,0.85 -6.57,0.67 -2.21,-0.19 -4.69,-0.78 -7.43,-1.79 -1.22,-0.45 -3.01,-1.38 -5.35,-2.78l-16.28 -9.78zm34.48 -25.96l0 0 -17.05 28.37c-0.9,1.5 -1.37,2.46 -1.44,2.89 -0.06,0.42 0.02,0.83 0.26,1.2 0.31,0.57 0.93,1.12 1.85,1.67 2.98,1.79 5.87,2.14 8.67,1.05 3.8,-1.48 7.43,-5.09 10.91,-10.89 2.8,-4.66 4.31,-8.83 4.53,-12.5 0.14,-2.88 -0.46,-5.26 -1.81,-7.13 -0.96,-1.34 -2.93,-2.88 -5.92,-4.66zm82.44 32.01l0 0c6.57,1.61 11.3,5.03 14.21,10.21 2.9,5.2 3.48,10.82 1.75,16.88 -1.49,5.17 -4.3,9.28 -8.45,12.34 -5.51,4.07 -11.92,5.05 -19.24,2.95 -7.33,-2.09 -12.29,-6.21 -14.88,-12.34 -2.04,-4.84 -2.29,-9.95 -0.74,-15.35 1.74,-6.05 5.25,-10.51 10.52,-13.35 5.28,-2.87 10.88,-3.32 16.83,-1.34zm-0.18 2.02l0 0c-3.74,-1.08 -7.12,0.02 -10.15,3.28 -2.48,2.66 -4.56,6.93 -6.24,12.78 -1.99,6.96 -2.25,12.45 -0.76,16.48 1.04,2.81 3.1,4.66 6.16,5.54 2.07,0.59 3.94,0.58 5.6,-0.02 2.13,-0.77 4.09,-2.43 5.89,-4.98 1.79,-2.52 3.33,-6.06 4.63,-10.59 1.55,-5.39 2.21,-9.57 1.97,-12.52 -0.25,-2.97 -0.97,-5.22 -2.21,-6.79 -1.25,-1.54 -2.87,-2.6 -4.89,-3.18zm72.27 7.48l0 0 21.83 25.56 -0.64 -18.22c-0.09,-2.54 -0.51,-4.25 -1.27,-5.12 -1.04,-1.17 -2.74,-1.7 -5.1,-1.58l-0.04 -1.16 14 -0.49 0.04 1.17c-1.78,0.29 -2.97,0.62 -3.57,1.01 -0.61,0.39 -1.07,1 -1.37,1.84 -0.33,0.82 -0.45,2.25 -0.38,4.25l1.23 35.29 -1.06 0.04 -29.89 -34.29 0.93 26.94c0.1,2.44 0.71,4.07 1.85,4.88 1.15,0.83 2.44,1.21 3.87,1.16l1 -0.04 0.04 1.16 -15.03 0.52 -0.04 -1.15c2.34,-0.11 3.94,-0.64 4.82,-1.62 0.89,-0.96 1.29,-2.57 1.21,-4.82l-1.05 -29.92 -0.94 -1.1c-0.93,-1.09 -1.74,-1.79 -2.45,-2.14 -0.7,-0.33 -1.7,-0.49 -2.99,-0.48l-0.04 -1.16 15.04 -0.53zm82.26 -9.25l0 0 4.76 16.59 0.8 -0.23c2.6,-0.73 4.23,-2.08 4.94,-4.05 0.69,-1.95 0.74,-4.57 0.16,-7.82l1.14 -0.32 6.12 21.34 -1.14 0.33c-0.91,-2.26 -1.96,-4.01 -3.15,-5.28 -1.21,-1.26 -2.39,-2 -3.56,-2.23 -1.16,-0.2 -2.73,-0.03 -4.67,0.52l3.3 11.48c0.64,2.25 1.12,3.59 1.47,4.04 0.33,0.45 0.8,0.76 1.42,0.92 0.61,0.18 1.49,0.1 2.66,-0.24l2.43 -0.69c3.81,-1.09 6.61,-2.85 8.4,-5.28 1.79,-2.4 2.67,-5.57 2.64,-9.47l1.11 -0.32 1.89 13.49 -35.25 10.1 -0.32 -1.1 1.35 -0.4c1.19,-0.34 2.08,-0.83 2.68,-1.45 0.44,-0.43 0.7,-1.02 0.78,-1.79 0.1,-0.53 -0.16,-1.83 -0.75,-3.88l-7.68 -26.82c-0.53,-1.85 -0.91,-2.96 -1.14,-3.35 -0.39,-0.64 -0.92,-1.08 -1.56,-1.32 -0.94,-0.34 -2.06,-0.31 -3.37,0.07l-1.37 0.38 -0.31 -1.12 34.12 -9.78 3.46 12.06 -1.14 0.33c-1.43,-2.77 -2.85,-4.66 -4.27,-5.64 -1.42,-0.98 -3.18,-1.51 -5.28,-1.54 -1.23,-0.05 -3.38,0.38 -6.47,1.27l-4.2 1.2zm78.15 -40.28l0 0 8 11.66 -1.08 0.7c-2.43,-2.65 -5.24,-4.23 -8.4,-4.75 -3.16,-0.52 -5.9,-0.04 -8.2,1.47 -1.79,1.16 -2.9,2.54 -3.31,4.18 -0.43,1.63 -0.24,3.07 0.57,4.31 0.51,0.78 1.16,1.37 1.92,1.74 1.04,0.5 2.38,0.79 4.01,0.85 1.21,0.05 3.77,-0.16 7.7,-0.63 5.49,-0.65 9.55,-0.53 12.18,0.34 2.62,0.88 4.69,2.49 6.22,4.84 1.92,2.97 2.42,6.29 1.5,9.93 -0.93,3.65 -3.18,6.64 -6.74,8.95 -1.11,0.73 -2.26,1.3 -3.4,1.72 -1.14,0.42 -2.67,0.8 -4.59,1.15 -1.07,0.2 -1.87,0.47 -2.41,0.82 -0.45,0.3 -0.82,0.79 -1.1,1.46 -0.28,0.68 -0.35,1.49 -0.19,2.41l-0.97 0.63 -8.73 -13.44 0.97 -0.62c3.23,3.27 6.57,5.19 10.06,5.75 3.49,0.56 6.5,0.02 9.03,-1.62 1.96,-1.28 3.17,-2.83 3.64,-4.66 0.48,-1.82 0.25,-3.44 -0.67,-4.85 -0.55,-0.84 -1.3,-1.51 -2.25,-2.02 -0.96,-0.49 -2.12,-0.79 -3.49,-0.91 -1.37,-0.12 -3.58,0 -6.63,0.36 -4.26,0.51 -7.47,0.67 -9.62,0.48 -2.15,-0.21 -4.04,-0.75 -5.7,-1.63 -1.65,-0.89 -3.03,-2.16 -4.1,-3.83 -1.85,-2.83 -2.37,-5.93 -1.59,-9.27 0.79,-3.34 2.78,-6.04 5.94,-8.09 1.15,-0.75 2.36,-1.35 3.63,-1.77 0.96,-0.33 2.21,-0.59 3.76,-0.78 1.55,-0.21 2.56,-0.46 3.03,-0.76 0.45,-0.29 0.72,-0.67 0.8,-1.12 0.09,-0.45 -0.11,-1.28 -0.57,-2.49l0.78 -0.51zm80.07 -12.41l0 0 0.79 0.84 -15.94 15.4 -0.81 -0.84 1.02 -0.97c0.88,-0.86 1.44,-1.7 1.68,-2.54 0.19,-0.58 0.13,-1.23 -0.15,-1.95 -0.17,-0.51 -1.01,-1.54 -2.49,-3.08l-19.38 -20.07c-1.5,-1.56 -2.52,-2.45 -3.08,-2.68 -0.53,-0.24 -1.19,-0.25 -1.98,-0.05 -0.78,0.19 -1.61,0.7 -2.46,1.52l-1.02 0.98 -0.8 -0.84 15.95 -15.4 0.81 0.84 -1.02 0.98c-0.87,0.85 -1.44,1.69 -1.68,2.53 -0.18,0.59 -0.15,1.24 0.13,1.96 0.18,0.52 1.01,1.55 2.49,3.08l19.38 20.07c1.51,1.56 2.53,2.46 3.08,2.68 0.55,0.22 1.22,0.23 2,0.04 0.79,-0.18 1.61,-0.69 2.46,-1.52l1.02 -0.98zm35.02 -63.76l0 0 -7.94 12.7 2.57 3.7c0.85,1.24 1.66,2.08 2.41,2.55 1.02,0.64 2.02,0.69 3,0.17 0.58,-0.28 1.53,-1.33 2.85,-3.12l0.97 0.61 -7.47 11.97 -0.98 -0.62c0.6,-1.41 0.74,-2.8 0.37,-4.18 -0.35,-1.38 -1.51,-3.54 -3.49,-6.47l-20.67 -30.8 0.32 -0.51 37.6 5.47c3.58,0.51 5.97,0.59 7.19,0.25 0.93,-0.27 1.78,-0.92 2.55,-1.95l0.98 0.6 -10.88 17.41 -0.97 -0.62 0.44 -0.71c0.88,-1.4 1.29,-2.5 1.26,-3.32 -0.04,-0.56 -0.32,-1.01 -0.86,-1.34 -0.32,-0.2 -0.67,-0.35 -1.08,-0.44 -0.19,-0.08 -1.01,-0.23 -2.49,-0.46l-5.68 -0.89zm-2.53 -0.32l0 0 -15.73 -2.39 8.94 13.26 6.79 -10.87z"/>
  <path class="fil1" d="M360 0c-198.79,0 -360,161.21 -360,360 0,198.79 161.21,360 360,360 198.79,0 360,-161.21 360,-360 0,-198.79 -161.21,-360 -360,-360zm0 712.7l0 0c-194.79,0 -352.7,-157.91 -352.7,-352.7 0,-194.8 157.91,-352.7 352.7,-352.7 194.79,0 352.7,157.9 352.7,352.7 0,194.79 -157.91,352.7 -352.7,352.7z"/>
  <polygon class="fil3" points="297.8,424.02 297.8,397.75 292.36,397.75 292.36,407.54 281.52,407.54 281.52,397.75 276.08,397.75 276.08,424.02 281.52,424.02 281.52,412.37 292.36,412.37 292.36,424.02 "/>
  <path class="fil3" d="M333.48 424.02l5.67 0 -9.47 -26.27 -6.24 0 -9.35 26.27 5.69 0 1.73 -5.41 10.18 0 1.79 5.41zm-10.55 -9.83l0 0 3.64 -11.19 3.66 11.19 -7.3 0z"/>
  <polygon class="fil3" points="355.43,397.75 355.43,424.02 373.66,424.02 373.66,419.17 360.84,419.17 360.84,397.75 "/>
  <path class="fil3" d="M403.07 397.75l-6.24 0 -9.35 26.27 5.69 0 1.73 -5.41 10.18 0 1.79 5.41 5.67 0 -9.47 -26.27zm-6.74 16.44l0 0 3.64 -11.19 3.65 11.19 -7.29 0z"/>
  <polygon class="fil3" points="428.82,397.75 428.82,424.02 447.05,424.02 447.05,419.17 434.23,419.17 434.23,397.75 "/>
  <path class="fil3" d="M554.69 430.85c0,-2.11 0.81,-4.53 2.02,-6.24 0,-1.71 0.4,-3.12 1.4,-4.43 0.81,-4.12 1.31,-8.45 3.13,-12.18 -0.2,-0.3 -0.3,-0.6 -0.41,-0.9 1.42,-5.03 2.42,-10.07 2.62,-15.3 1.71,-4.63 0.51,-10.36 1.71,-15.3 -1.81,-7.44 1.61,-15.29 -0.1,-22.44 -3.82,1.11 -8.05,0.51 -12.07,0.51l0 -0.91c-5.34,0 -30.5,-1.81 -31.2,-3.33 -0.81,0 -2.12,0.81 -2.62,0.11 -4.33,-0.3 -4.43,1.61 -6.34,-2.92 -0.91,-1.21 -3.83,-4.02 -3.83,-5.64 -1.51,-0.5 -2.62,-1.81 -3.62,-3.22l-0.6 0c-0.2,0.81 -3.63,3.93 -4.53,3.93 0,0.5 0.09,1 0.2,1.51 -1.91,1.41 -4.73,3.02 -5.64,5.43 -5.84,2.11 -2.82,6.75 -1.41,10.87 0.81,0.1 1.51,-0.2 2.01,0.2 1.42,-1.41 14.1,0.71 16.51,0.5 0.2,0.11 0.41,0.21 0.71,0.41 1.31,-0.6 1.91,0 3.11,0.4 8.56,0.2 17.32,1.51 25.37,1.51 0.1,0.21 0.2,0.4 0.3,0.7 1.91,0.31 3.83,0.71 5.84,1.11 0.2,0.5 0.5,1.01 0.8,1.61 4.53,1.11 2.72,7.45 1.82,10.47 -2.62,1.91 -4.13,3.82 -7.56,4.22 -0.19,0.21 -0.4,0.41 -0.5,0.71 -2.52,0 -10.36,1 -12.37,-0.3 -2.32,0.3 -4.33,-0.3 -6.65,-0.71 0.2,-3.12 -0.5,-5.83 -1,-8.95 -1.21,0 -1.92,0.3 -2.93,0 -0.1,0.3 -0.19,0.6 -0.19,1 -5.03,1.51 -9.57,6.04 -14.8,6.64 0.1,2.52 0.91,5.04 0.91,7.35 1.3,0.3 3.01,0.81 4.12,0.3 0.41,0.11 0.81,0.21 1.21,0.41 0.1,-0.2 0.3,-0.3 0.51,-0.41 4.32,0.31 9.66,0.31 13.78,1.41 5.53,0.3 9.77,1.11 14.59,3.83l0 0.7c1.82,1.41 2.12,2.52 2.32,4.73 4.23,2.82 1.61,17.72 -1.61,20.93 -0.1,0.51 -0.1,1.01 -0.1,1.52 -0.61,0.2 -1.21,0.4 -1.71,0.7 -0.1,0.4 -0.1,0.8 -0.1,1.21 -0.41,0.1 -0.7,0.2 -1.01,0.3 -0.1,0.3 -0.2,0.6 -0.3,0.9 -0.51,0.11 -0.91,0.21 -1.31,0.31 -0.4,1.21 -4.23,3.12 -4.23,1.4 -2.31,1.62 -7.04,1.22 -9.76,1.01 -0.1,-0.3 -0.1,-0.5 -0.1,-0.7 -4.43,1.41 -6.74,-2.32 -10.57,-3.42 -2.72,-2.72 -3.02,-3.83 -3.72,-4.43 -0.3,-2.72 -0.3,-2.72 -0.71,-3.02 0.71,-7.34 -0.8,-6.44 -5.33,-11.17 -3.42,0 -6.44,-3.02 -10.26,-3.02 -0.61,1 -1.31,2.01 -2.42,2.52 -1.41,5.13 -7.85,10.36 -13.08,10.86 -0.71,0.3 -1.42,0.61 -2.02,1.01 -0.1,1.92 -0.7,2.82 -0.3,4.73 3.42,-0.8 14.7,1.61 17.01,1.82 1.61,1.2 4.32,2.21 6.24,2.91 2.52,2.21 7.55,3.13 9.26,5.94 1.61,0 3.52,1.41 4.02,2.82 0.61,-0.3 5.84,3.42 6.85,3.92 1.81,3.02 8.55,5.14 9.15,8.56 0.21,0 0.51,0 0.81,0.1 0.91,3.72 -1.3,12.78 -6.03,12.78 -0.31,0.3 -0.61,0.6 -0.91,1l-1.81 0c-0.11,0.11 -0.21,0.31 -0.3,0.51 -2.92,-0.2 -5.74,-0.3 -8.56,-0.4 -1.11,-1.01 -2.11,-1.91 -3.12,-2.82 -2.22,0.5 -3.53,-2.52 -5.64,-2.52 -0.2,-0.4 -0.4,-0.81 -0.5,-1.11 -2.42,-1.1 -8.46,-4.32 -9.46,-7.04 -2.31,-0.9 -3.92,-2.92 -5.44,-4.93 0.3,-0.3 0.71,-7.25 0.71,-7.34 1.91,-2.23 -0.8,-2.32 -0.8,-3.93 -1.41,0.3 -2.63,-0.61 -3.63,-1.51 -4.23,-0.6 -6.44,0 -8.85,3.42 -2.83,-0.3 -5.55,-0.1 -8.36,-0.51 -1.11,1.22 -2.41,1.31 -2.41,3.32 0.9,0.31 2.31,0.81 3.21,0.11 3.93,1.81 9.77,5.33 11.68,9.26 0.4,0 0.81,0 1.31,0.1 0.3,0.5 0.6,1 0.91,1.61 0.49,0.1 1.1,0.2 1.71,0.3 0,0.4 0,0.8 0.1,1.31 0.7,0.2 1.4,0.5 2.21,0.8 2.42,3.93 8.15,5.84 9.66,10.37 3.22,0.6 4.73,4.23 7.35,5.94 2.11,2.62 4.23,5.23 6.44,7.85l0.9 0c1.01,2.41 1.62,2.82 0.71,5.13 0,1.61 -1.01,2.12 -1.61,3.62 -0.81,-0.4 -2.92,2.12 -3.52,2.62 -1.21,0 -3.42,0.7 -5.74,0.7 -1.91,-1.2 -3.82,-2.72 -6.04,-3.11 -2.81,-2.22 -2.81,-2.22 -8.05,-5.24 -1,-1.31 -4.73,-3.42 -6.34,-3.82 -1.51,-1.91 -2.41,-2.32 -3.52,-3.53 -3.93,-1.41 -4.53,-5.73 -4.53,-9.05 1.71,-2.82 2.52,-3.12 3.12,-4.23 -2.52,-3.52 -3.12,-5.24 -7.75,-4.23 -5.74,-0.4 -11.98,0.91 -17.51,1.51 -0.21,2.02 -0.5,2.21 -0.31,4.03 1.41,0.5 2.52,0.9 3.53,1.91 1.41,0 3.32,2.12 4.33,3.02 4.93,2.82 11.57,7.85 14.39,12.99 0.2,0.09 0.5,0.2 0.8,0.3 0,0.39 0.1,0.9 0.2,1.4 2.72,1.31 8.26,8.26 8.76,11.38 0.3,0.1 0.71,0.2 1.11,0.3 0.09,0.7 0.2,1.51 0.4,2.32 0.3,0 0.61,0 0.91,0.09 0.5,1.71 2.31,6.65 3.72,7.05 0.1,1.31 0.2,2.72 0.3,4.13 -0.3,0.1 -0.6,0.2 -0.91,0.4 0.21,0.3 0.41,0.6 0.61,1.01 -0.81,1.71 -0.81,1.71 -1.51,2.21 0.1,0.2 0.2,0.4 0.4,0.7 -2.82,5.33 -4.83,9.67 -11.57,10.27 -1.41,1.01 -8.36,1.21 -9.06,-0.31 -1.51,-0.09 -5.13,-0.29 -5.64,-1.91 -5.23,-1.91 -10.86,-4.93 -15.09,-8.45 -5.53,-1.81 -9.46,-6.24 -15.3,-7.35 -0.21,0.3 -0.4,0.71 -0.51,1.11 -1.71,1.31 -1.6,2.82 -3.21,4.22 -1.61,6.15 -4.23,12.19 -5.74,18.52 -0.6,0.61 -1.01,2.02 -2.61,4.13 -0.61,3.63 5.22,14.8 7.64,17.22 3.32,0.09 7.75,0.7 10.47,2.71 3.42,0.5 6.94,1.92 9.46,4.43 0.3,-0.1 0.61,-0.1 1.01,-0.1l0 1.81c0.2,-0.3 0.5,-0.5 0.8,-0.71 0.6,1.11 1,2.62 2.22,3.23 -0.41,7.74 -2.12,11.07 -7.15,16.9 -1.71,4.33 -6.34,0.51 -9.46,2.62 -5.84,-1.51 -11.78,-4.23 -15.1,-9.66l-0.6 0c-1.31,-1.51 -2.52,-2.92 -3.73,-4.33l-0.8 0c-4.23,4.63 2.82,9.46 2.82,14.09 1.31,0.6 1.81,1.01 2.01,2.61 0.81,0.31 0.81,0.31 2.72,2.63 2.62,1.1 3.82,2.31 7.15,3.11 3.81,2.62 8.85,1.31 12.47,3.53 0.21,-0.21 0.4,-0.41 0.71,-0.51 4.12,1.31 13.78,-4.33 15.2,-7.95 7.24,-5.13 7.04,-18.71 3.01,-25.76 0.11,-0.4 0.2,-0.7 0.41,-1.01 -0.41,-0.5 -0.41,-0.5 -1.71,-1 -1.52,-2.22 -5.74,-9.06 -8.36,-9.06 -0.2,-0.41 -0.3,-0.81 -0.4,-1.21l-0.81 0c-0.39,-0.61 -0.7,-1.21 -1,-1.71 -1.61,0 -4.33,-1.01 -4.94,-2.32 -0.4,-0.09 -0.7,-0.2 -1,-0.2 -0.1,-0.4 -0.2,-0.81 -0.3,-1.11 -0.41,0 -0.81,0 -1.21,0.11 -0.2,-0.41 -0.4,-0.81 -0.5,-1.11 -1.31,-0.2 -2.42,-1.21 -3.63,-1.21 -2.31,-3.12 0.51,-11.77 1.61,-14.99 0.6,0.09 1.21,0.2 1.92,0.4 1.21,2.01 3.82,1.91 5.53,3.62 3.92,1.31 7.45,4.53 11.48,5.34 0,0.3 0,0.6 0.09,1 1.22,0.2 2.63,-0.1 3.02,1.31 0.51,-0.1 1.01,-0.2 1.62,-0.2 6.04,1.31 11.37,2.11 17.61,2.31 2.82,-4.22 9.46,-5.63 12.18,-10.16 4.02,-1.51 6.34,-6.54 10.66,-8.26 0.41,-1.91 3.53,-3.52 5.03,-5.03 1.11,-4.72 9.47,-6.64 10.97,-11.17 0.51,-0.4 1.01,-0.8 1.52,-1.1 -0.3,-1.11 11.17,-12.89 12.48,-15.5 1.71,-2.02 3.72,-3.43 4.63,-5.94 1.71,-1.21 1.61,-1.92 2.51,-3.63 1.71,-0.4 5.84,-8.14 6.44,-10.06 2.52,-1.11 1.61,-4.53 3.73,-5.94 1.51,-3.82 3.92,-6.84 5.03,-10.87 2.52,-3.32 2.52,-9.56 5.63,-12.68z"/>
  <path class="fil3" d="M290.4 572.56c-4.62,-4.63 -7.04,-3.32 -11.87,-0.5 -0.1,0.9 -0.2,1.5 -0.91,2.21 0,3.93 1.61,5.63 3.93,8.45 1.91,-0.1 3.82,-0.2 5.73,-0.2 1.31,-1.1 5.04,-5.73 3.43,-7.35 -0.11,-0.9 -0.2,-1.81 -0.31,-2.61z"/>
  <path class="fil3" d="M389.64 566.22c0,0.3 0,0.6 0.1,1 -2.21,1.92 -0.3,6.34 2.21,7.15l0 0.71c0.41,0.09 0.81,0.19 1.31,0.3 5.34,-0.51 5.84,-3.23 5.84,-8.46 -2.82,-3.52 -5.84,-3.12 -9.46,-0.7z"/>
  <polygon class="fil3" points="335.19,571.05 335.59,571.05 335.59,570.65 335.19,570.65 "/>
  <path class="fil3" d="M259.1 558.87c-0.19,-0.3 -0.4,-0.6 -0.49,-0.81 -1.32,-0.3 -2.53,-0.5 -3.73,-0.7 -2.82,-1.71 -13.89,-4.72 -17.21,-3.92 -0.91,-0.61 -1.82,-1.11 -2.62,-1.61 -3.53,-0.51 -9.86,-8.86 -12.28,-4.03 -0.4,0 -0.8,0.1 -1.1,0.2 0,5.24 10.36,9.36 14.49,10.36 1.61,2.43 10.87,0.62 13.99,3.73l1.81 0c0.2,0.3 0.4,0.6 0.61,1.01 2.51,0.6 7.44,1.81 8.85,3.92 1.81,-0.3 1.81,-0.3 2.52,-0.1 2.21,-1.11 3.42,-3.82 2.31,-6.13 -2.41,-0.91 -4.43,-1.92 -7.15,-1.92z"/>
  <polygon class="fil3" points="335.19,566.62 335.59,566.62 335.59,566.32 335.19,566.32 "/>
  <path class="fil3" d="M375.25 536.02l-0.81 0c-0.4,-0.49 -0.7,-1 -1,-1.51 -0.31,0 -0.61,0.1 -0.91,0.21 -0.1,-0.41 -0.2,-0.81 -0.3,-1.11 -2.52,-0.8 -2.12,-1.81 -3.32,-3.73 -0.71,-0.09 -1.41,-0.2 -2.12,-0.2 -0.8,-2.52 -5.74,-3.92 -6.94,-6.44 -0.3,-0.2 -0.6,-0.3 -0.81,-0.4 -1.81,2.42 -4.02,4.32 -6.54,5.74 -0.1,0.4 -0.2,0.8 -0.2,1.3 -4.33,3.12 -7.44,7.45 -11.68,10.68 -1.8,0.09 -6.74,-1.01 -7.44,-0.31 -1.81,-0.3 -4.93,0.1 -6.34,-0.7 -6.24,1.01 -13.39,-2.01 -19.33,-0.61 -0.4,-0.3 -0.4,-0.3 -7.75,-0.7 -0.3,0.2 -0.49,0.5 -0.7,0.8 2.01,2.22 4.13,5.03 6.44,6.75 0.9,1.91 2.82,2.61 3.82,4.62 -0.8,-0.19 -1.61,-0.3 -2.41,-0.4 -0.1,0.1 -0.2,0.21 -0.3,0.4 -4.83,-0.6 -12.08,1.01 -16.21,-1.71 -3.52,-0.49 -7.04,-1.61 -10.46,-2.61 0.1,-1.11 0.2,-2.21 0.4,-3.32 1.01,-0.6 4.03,-9.66 4.03,-11.28 2.72,-4.33 2.42,-10.97 5.43,-14.99 -1.11,-3.52 6.34,-17.11 7.95,-22.64 2.12,-1.41 2.21,-6.55 4.73,-8.66 3.52,1.1 6.75,2.82 10.26,3.32 -0.49,-2.22 -2.31,-3.93 -2.1,-6.65 -1.82,-3.01 -1.41,-8.54 -3.73,-10.86 0,-1.92 -1.31,-4.43 -1.71,-6.44 -0.3,0 -0.51,0 -0.7,0.1 -1.31,1.91 -1.82,3.72 -3.63,5.53 -0.1,0.81 0,1.61 -0.81,2.01 0.41,0.81 -2.11,2.72 -2.11,4.33 -3.22,3.23 -4.93,8.66 -7.84,12.48 -0.61,1.52 -1.31,4.33 -2.72,5.03 -0.3,1.42 -1.01,2.02 -1.41,3.43 -2.52,2.51 -3.22,6.64 -5.64,9.25 -0.7,3.83 -5.43,7.76 -6.04,11.89 -4.02,3.01 -5.43,10.16 -8.75,14.19 0.4,0.8 -1.91,2.31 -1.61,3.82 -1.41,2.92 -7.15,0.6 -9.57,0 -1.1,-1.72 -4.32,-0.3 -5.33,-2.32 -5.44,-2.91 -10.07,-5.73 -14.39,-10.77 -0.41,-0.1 -0.71,-0.19 -1.01,-0.3l0 -0.5 1.31 0c0,-0.51 0,-1 0.1,-1.41 0.71,-0.51 0.71,-0.51 1.91,-0.6 1.01,-4.33 7.55,-5.14 8.56,-9.46 0.9,-0.81 1.81,-2.02 3.11,-2.02 0.41,-2.31 3.33,-3.62 5.14,-5.23 2.72,-5.54 5.74,-1.31 9.16,0.1 2.51,-2.51 -1.31,-19.12 -1.51,-24.35 -0.91,1 -2.42,3.02 -3.82,3.02 -2.42,3.51 -5.24,6.13 -8.76,8.55 0,1.11 -0.81,1.81 -1.51,2.61 -3.32,1.62 -4.93,6.55 -8.55,7.75 -2.02,4.03 -7.05,6.55 -9.57,10.37 -3.02,1.21 -3.42,4.53 -6.34,5.54 0,0.1 0,0.2 0.11,0.4 -0.61,0.1 -1.12,-0.51 -2.12,-0.91 -0.2,-0.6 -0.41,-1.1 -0.6,-1.61l-0.91 0c-2.01,-2.81 -5.34,-5.13 -7.85,-7.65 2.21,-1.11 5.53,-5.93 7.95,-5.93 0.1,-0.4 0.21,-0.81 0.3,-1.21 5.03,-3.02 8.36,-8.76 13.79,-10.87 0.51,-2.62 3.42,-4.33 5.94,-4.93 1.51,1.81 5.64,3.82 7.75,5.03 0.1,-0.1 0.3,-0.2 0.5,-0.3 -0.3,-1.31 0.11,-2.42 -0.3,-3.73 0.2,-2.31 1.91,-20.33 0.71,-21.53 -1.92,1.61 -3.43,3.32 -5.84,4.02 -0.41,1.41 -1.81,2.22 -3.02,3.12 -0.2,-0.2 -0.4,-0.3 -0.5,-0.4 -2.02,2.31 -5.14,4.53 -7.86,6.04 -3.02,4.02 -12.07,7.25 -13.48,11.47 -1.61,0.81 -3.22,1.62 -4.83,2.52 -0.4,1.31 -2.62,2.51 -3.62,3.92 -1.92,0.41 -3.23,2.12 -4.64,3.42 -1.5,-0.9 -2.21,-2.61 -3.82,-3.52 0,-0.3 0.1,-0.6 0.2,-0.8 -2.21,-0.81 -3.12,-2.52 -5.03,-3.12 -0.51,-1.21 -0.71,-1.51 -1.61,-2.42 1.91,-2.51 6.44,-3.22 9.06,-5.43 0.8,0.2 2.72,-1.62 4.33,-1.62 0.1,-0.4 0.19,-0.8 0.4,-1.1l1.2 0c0.21,-0.4 0.41,-0.7 0.71,-1.01 4.73,-1.4 9.56,-4.73 13.89,-7.25 2.41,0.41 4.03,3.53 6.84,3.53 1,-3.32 1.31,-6.85 2.82,-9.97 0.5,-3.32 2.12,-10.06 4.73,-12.08 0,-2.91 1.91,-5.03 2.72,-7.84 0.4,-0.21 0.4,-0.21 2.11,0.5 -0.1,0.3 -0.1,0.6 -0.1,1.01l0.91 0c1.81,3.01 7.34,4.93 10.16,7.34 2.02,0.21 3.33,0.91 4.83,2.12 0.3,-0.2 0.61,-0.3 1,-0.41 0.51,0.51 0.51,0.51 0.71,1.52 0.51,-0.11 1.01,-0.2 1.61,-0.2 0,0.2 0.1,0.39 0.21,0.69 3.32,-0.69 6.14,-1.4 8.25,-4.32 5.93,-2.11 3.52,-14.8 0.8,-18.12 -8.65,0.41 -12.98,3.32 -16.51,11.58 -1.9,0.6 -4.22,-1.71 -5.43,-2.82 -5.03,-2.01 -8.85,-5.74 -8.25,-11.27 2.72,-2.01 4.43,-6.84 7.35,-9.26 -0.3,-4.43 -0.51,-8.55 -0.41,-13.09l-4.52 0c-1.21,1.61 0.09,3.02 0.3,5.04 -0.41,3.31 -1.21,12.48 -5.94,13.38 -1.21,-1.5 -2.02,-3.02 -3.52,-4.52 0.2,-0.51 0.4,-1.01 0.7,-1.42 -0.2,-0.4 -0.3,-0.8 -0.4,-1.1 0.1,-2.92 -0.6,-14.29 1.71,-15.81 0.9,-2.1 1.11,-2.61 3.12,-3.62 0.1,-1.91 0.3,-3.72 0.5,-5.53 -1.2,0.1 -2.92,0.91 -3.72,0.1 -1.91,2.31 -5.83,3.01 -8.66,4.73 -0.2,-0.1 -0.4,-0.2 -0.6,-0.3 -0.21,0.3 -0.3,0.7 -0.4,1.11 -0.41,-0.11 -0.81,-0.11 -1.21,-0.11 -0.1,0.21 -0.2,0.51 -0.3,0.81l-58.5 22.12 -0.11 1.1 -19.15 6c0.72,4.76 2.01,8.35 5.6,11.94 2.81,-2.01 6.64,-3.22 9.86,-4.43l56.66 -27.78c2.22,-0.8 2.22,-0.8 3.53,-0.7 0.6,2.31 0.6,2.31 3.32,7.85 0.19,0 0.4,0.1 0.7,0.2l0 1.31c1.71,0.51 3.92,7.35 5.74,9.16 0.1,0.41 0.2,0.9 0.3,1.41 3.02,2.21 4.02,8.95 7.05,9.96 0.09,0.91 0.19,1.92 0.3,2.92 -1.01,0.61 -2.02,1.21 -2.92,1.92 -0.1,0.4 -0.21,0.9 -0.21,1.4 -2.51,0 -3.21,3.93 -5.53,4.33 -0.7,2.32 -3.93,4.43 -6.14,5.14 -0.4,1.2 -6.14,5.83 -7.34,6.03 -0.11,0.3 -0.11,0.61 -0.11,0.91 -2.92,0.4 -4.03,2.21 -6.54,3.02 -0.1,0.3 -0.2,0.6 -0.2,1.01 -0.61,0 -1.11,0 -1.61,0.09 -0.3,1.01 -9.56,5.34 -10.97,5.34 -1.31,1.01 -2.22,1.61 -3.83,1.81 -7.14,3.32 -20.02,8.25 -28.18,7.34 -0.19,0.31 -0.19,0.31 -5.73,0.51 -0.41,-0.4 -11.48,-3.02 -12.38,-2.72 -0.1,-0.3 -0.2,-0.6 -0.2,-0.8 -0.51,0.1 -0.91,0.2 -1.31,0.3 -1.61,-1.61 -4.13,-2.42 -6.14,-2.82 -0.51,-1.51 -6.94,-4.12 -8.45,-4.93 -3.73,0 -4.93,-6.13 -8.25,-7.35 0,-1.71 -3.93,-8.25 -5.14,-7.84 -0.1,-0.61 -0.1,-1.11 -0.1,-1.62 -0.3,-0.1 -0.61,-0.2 -0.8,-0.3 -0.21,-0.4 -0.31,-0.71 -0.41,-1.01l-0.6 0c-0.4,-0.8 -2.22,-4.22 -1.92,-5.23 -0.4,-0.2 -0.8,-0.4 -1.1,-0.5 0,-1.51 -2.22,-7.05 -3.32,-8.15 -0.7,-4.03 -0.7,-4.03 -1.41,-6.14 -0.21,-6.04 -1.71,-14.8 1.1,-20.54 -0.3,-4.62 2.62,-10.16 4.13,-14.39 1.01,-0.5 2.22,-3.92 2.52,-5.03 2.11,-3.12 5.43,-6.44 7.05,-9.76 3.11,-1.51 6.03,-4.53 8.05,-7.25 1.4,-1.1 1.4,-1.1 3.11,-1.71 0,-0.3 0,-0.6 0.1,-0.9l0.71 0c0,10.26 2.42,20.22 3.42,30.59 1.01,1 1.41,3.12 1.61,4.53 1.84,1.25 3.4,1.59 5.47,1.61l0.29 -0.04c0.2,-0.39 0.49,-0.67 0.78,-0.97 0.77,0.11 1.41,0.3 1.97,0.57l6.21 -0.9c3.29,-0.85 9.34,-1.58 11.15,-3.39 5.23,0.9 11.27,-4.03 16.4,-3.02 0.2,-0.41 0.5,-0.71 0.81,-1.01 2.81,0.41 7.75,-1.81 10.56,-2.31 2.52,-1.91 6.34,-1.11 8.96,-2.82 1.21,0.61 2.22,-0.4 3.53,-0.91 0.19,0.11 0.4,0.21 0.7,0.41 2.31,-1.11 4.03,-1.51 6.64,-1.71 1.01,-1.01 2.82,-1.21 4.13,-1.41 0.3,0.3 0.6,0.7 1.01,1.1 -0.21,0.31 -0.3,0.61 -0.41,1.01 1.11,1.51 1.41,4.33 1.71,6.14 2.32,1.1 13.39,-11.27 13.39,-13.08 1.01,-0.51 1.91,-1.71 1.61,-2.82 -4.03,-0.4 -9.47,-0.4 -13.19,-1.41 -2.62,2.62 -9.86,0 -13.18,2.21l-2.41 0.31c-1.01,-1.82 -2.92,-2.82 -3.33,-4.94 0.61,-0.9 1.31,-1.81 2.02,-2.61 0.7,-2.12 1.31,-9.06 0,-10.37 -2.42,0 -6.14,0.6 -8.26,-0.4 -0.8,0.4 -1.51,0.3 -2.21,-0.2l0 -4.93c3.42,-4.23 3.42,-4.23 3.42,-4.83 -3.82,-2.22 -3.42,-11.27 -3.42,-15.21 -4.43,3.33 -2.62,10.17 -3.02,15.31 -3.83,4.93 -4.63,14.49 -2.51,20.32 -0.21,0.81 -0.31,1.72 -0.41,2.62 1.21,0.4 1.21,0.4 2.42,1.41 2.01,0.3 5.73,0.51 5.73,3.42 -0.7,0.31 -0.7,0.31 -1.91,1.61 -5.53,0 -13.89,2.32 -19.02,4.74 -0.9,-0.11 -2.31,-0.71 -2.82,0.3 -2.11,0.3 -4.12,0.6 -6.14,1 -3.32,2.22 -9.36,2.12 -13.28,2.62 -5.03,-1.81 -2.02,-7.35 -4.23,-10.67 0.1,-1.71 0.1,-1.71 -1.11,-17.31 0.61,-0.81 0.61,-2.62 -0.19,-3.42 0.3,-0.4 0.3,-4.23 0.7,-4.73 -1.51,-1.91 -0.61,-14.9 0,-15.5 -0.2,-3.42 0.2,-15.5 1.61,-17.41 0.09,-1.61 -0.11,-3.43 0.5,-4.73l1.01 0c0.1,0.3 0.2,0.6 0.4,0.9 4.02,0.4 8.65,5.14 11.98,5.14 0.2,0.3 0.4,0.7 0.6,1.1 0.2,-0.2 0.4,-0.29 0.61,-0.4 5.53,1.31 11.47,7.55 17.3,8.46 0.3,0.3 0.61,0.6 0.91,1 1.61,-1.61 0.3,-5.93 1.3,-8.05 -0.19,-8.56 0.91,-17.01 0.91,-25.46 0.5,-1.01 0.1,-2.01 0,-3.12 0.91,-2.12 1.72,-12.48 0.71,-14.5 -0.71,0.71 -2.22,0.11 -3.22,0.11 -2.92,1.6 -5.84,3.21 -8.66,4.92 -5.63,0.51 -12.88,7.45 -18.42,6.25 0.11,-1.61 -0.1,-2.32 0.81,-3.63 -0.5,-1.1 -0.2,-2.21 -0.1,-3.32 0.2,-0.1 0.4,-0.2 0.7,-0.3 0.41,-1.41 0.41,-1.41 0.31,-2.62 1.91,-3.32 1.71,-8.85 4.43,-11.57 -0.21,-0.31 -0.31,-0.61 -0.41,-0.91 1.41,-2.61 1.41,-2.61 2.72,-6.04 2.81,0.71 5.64,0.91 7.75,3.02 0.3,-0.09 0.7,-0.2 1.11,-0.3 5.63,1.61 11.77,4.43 17.81,5.44 0.81,0.8 6.44,2.72 7.75,2.72 3.93,2.21 12.28,1.91 15.3,4.92 1.5,0 1.5,0.11 2.62,0.81 4.32,0.71 8.65,1.61 12.78,3.12 0.9,10.57 0.9,10.57 1.3,10.97 5.84,-3.32 13.09,-2.71 19.02,-5.43 2.32,-0.41 3.02,-1.01 3.73,-1.01 0.2,-1.61 -1.91,-2.01 -3.02,-2.31l0 -0.92c-1.41,-0.2 -5.14,-1.8 -5.44,-2.81 -1.5,0.3 -3.11,-0.4 -3.92,-1.71 -0.51,-0.1 -0.9,-0.2 -1.31,-0.2 -0.1,-0.3 -0.2,-0.6 -0.3,-0.81 -1.51,-0.5 -3.42,-0.7 -4.33,-2.11 -0.7,-0.1 -1.4,-0.1 -2.11,-0.1 -0.1,-0.4 -0.2,-0.81 -0.3,-1.11 -3.43,0 -5.94,-3.02 -9.57,-3.42 -1.71,-0.9 -7.04,-4.22 -8.75,-4.22 -0.2,-0.31 -0.4,-0.61 -0.61,-0.81 -0.2,0.1 -0.4,0.2 -0.5,0.4 -2.61,-1.11 -2.61,-1.11 -3.82,-2.11 -2.32,0.2 -11.17,-4.13 -12.28,-5.23 -4.63,0 -8.56,-4.74 -13.08,-4.74 -0.11,-0.3 -0.11,-0.6 -0.11,-0.8 -2.11,-0.5 -3.21,-0.5 -4.32,-2.42 -0.3,0.21 -0.6,0.4 -0.81,0.61 -0.2,-0.3 -0.4,-0.51 -0.5,-0.71 -0.81,-0.1 -1.51,-0.2 -2.22,-0.3 -1.31,-1.71 -3.22,-1.21 -4.12,-3.12 -0.4,0 -0.81,0 -1.21,0.1 -0.5,-7.04 5.54,-11.67 6.95,-18.02 2.21,0.71 11.07,-2.81 13.68,-2.91 0.1,-0.3 0.2,-0.51 0.31,-0.71 1.6,0.2 4.22,-1.01 5.93,-1.41 0.61,-4.03 0.81,-9.15 0.81,-13.18 1.61,-2.72 -1.41,-8.96 3.62,-8.96 0,-0.4 0,-0.7 0.1,-1.01 2.92,-2.41 5.64,-8.05 9.36,-9.25 3.92,-3.92 3.02,-4.33 7.85,-2.12 0,0.41 0.1,0.81 0.2,1.31 1.31,0.4 1.72,1.71 3.13,2.12 1.3,4.12 7.94,7.04 9.66,11.07 2.21,1.11 3.62,3.82 5.83,5.33 0.81,4.23 5.94,6.34 6.95,10.36 1.91,2.72 4.83,6.55 5.83,9.67 0.41,0 0.81,0 1.31,0.1 0.61,1.81 1.81,5.23 3.63,6.04 -0.11,0.3 -0.11,0.6 -0.11,0.91 0.2,0.09 0.51,0.19 0.81,0.39 0.31,2.12 0.31,2.12 0.7,2.62 -1.61,0.61 -5.73,2.32 -7.54,2.32 0,3.22 -2.12,6.43 -2.32,9.86 -1.41,5.44 -1.61,8.45 -0.81,13.99l0.71 0c0.2,-1.11 0.2,-1.11 1.11,-2.01 0,-1.92 4.13,-5.94 5.74,-7.15 -0.11,-0.2 -0.11,-0.4 -0.11,-0.6 2.42,-1.21 3.92,-3.42 6.85,-4.53 2.62,0.51 5.33,1 8.05,1.61 0.1,0.2 0.2,0.4 0.3,0.7 1.81,0.6 4.33,1.21 5.83,2.42 0.11,-0.3 0.31,-0.6 0.51,-0.81 1.31,0.1 1.31,0.1 2.92,0.71 -2.72,-8.86 -7.55,-12.28 -15.5,-15.7 -1.61,-3.02 -2.41,-8.05 -4.83,-10.17 -1.91,-6.54 -5.74,-11.97 -9.16,-17.91 -0.4,-0.4 -0.8,-0.81 -1.2,-1.21 -1.62,-3.32 -6.04,-7.65 -6.85,-10.86 -0.3,-0.11 -0.51,-0.21 -0.71,-0.31 -0.3,-1.61 -0.9,-2.01 -2.11,-3.02 -1.4,-3.22 -5.53,-5.94 -6.24,-9.46 -3.92,-3.93 -8.75,-10.36 -10.66,-15.4 -0.41,-0.1 -0.81,-0.2 -1.12,-0.3 -0.29,-0.71 -0.6,-1.41 -0.9,-2.11 -0.81,-0.21 -3.72,2.31 -5.13,2.51 -0.11,0.4 -0.2,0.81 -0.3,1.21 -0.2,-0.2 -0.41,-0.3 -0.51,-0.4 -0.5,0.5 -0.5,0.5 -2.11,0.7 -1.61,2.12 -3.23,3.83 -5.63,5.03 -0.61,0.91 -1.11,2.32 -2.32,2.32 -2.01,2.21 -4.63,3.32 -6.04,5.84 -3.42,2.01 -5.64,4.82 -7.95,8.25 -0.9,0.5 -12.38,1.91 -12.98,1.3 -0.51,0.41 -5.54,0.41 -8.66,0.81 -0.2,4.13 -0.3,8.25 -0.4,12.48 0.9,1.21 0.5,9.16 -0.3,10.77 0.2,0.2 0.5,0.4 0.8,0.61 -0.2,0.4 -0.3,0.8 -0.4,1.2 0.1,0.1 0.2,0.3 0.4,0.5 -0.3,0.61 -0.5,1.32 -0.71,2.02 -0.3,0 -0.5,0.1 -0.7,0.2 -0.2,0.7 -0.4,1.41 -0.6,2.11 -0.3,0 -0.61,0 -0.91,0.1 -0.19,1.52 -0.9,3.12 -2.31,4.03 0.3,0.7 -2.21,3.22 -2.52,4.63 -0.7,0.2 -1.11,1.4 -1.71,1.71l0 1.01c-4.93,7.35 -7.45,15.79 -11.17,23.75 -0.2,1.31 -0.4,4.33 -1.61,4.93 0,3.12 -2.22,6.94 -2.72,10.27 -2.31,2.31 -0.7,7.95 -3.32,10.56 -0.2,2.92 -0.91,4.84 -1.71,7.65 -1.21,10.87 -3.62,20.43 -3.62,31 -0.31,0.11 -0.51,0.2 -0.71,0.3 0.5,1.81 0.31,5.23 0,7.15 -0.1,8.75 -0.1,17.81 0.81,26.67 -1.01,0.4 -1.01,0.4 -3.73,3.02 -0.2,-0.11 -0.4,-0.11 -0.5,-0.11 -1.51,1.92 -6.44,6.35 -8.46,6.35 -0.9,1.81 -4.32,4.22 -6.23,5.03 -0.21,0.7 -0.4,1.4 -0.61,2.21 -0.3,0 -0.6,0 -0.9,0.1 0.7,3.63 -6.45,7.35 -6.45,10.17 -1.2,2.01 -2.41,4.02 -3.62,6.03 -0.2,2.72 -0.4,7.05 -2.21,8.86 0.3,1.91 -0.81,4.03 0,5.64 -0.51,1 -0.2,1.51 0,2.52 -1.11,2.41 -0.81,8.85 0.4,11.37 -0.3,0.2 -0.6,0.4 -0.91,0.6 1.42,0.91 0.91,2.02 0.81,3.32 1.41,2.83 1.81,6.95 1.81,10.07 0.1,0 0.3,0 0.51,0.1 0.1,0.9 0.19,1.81 0.4,2.82 0.2,0.1 0.5,0.2 0.8,0.3 0.1,1.21 0.3,2.41 0.51,3.62 0.3,0.2 0.6,0.41 1,0.71 0.2,2.01 1.81,4.03 1.41,5.83 0.61,0.51 0.61,0.51 3.32,5.54 -0.2,0.1 -0.3,0.3 -0.4,0.5 3.62,4.03 5.74,8.96 10.26,12.38 0,0.21 0.1,0.4 0.21,0.7 3.02,3.53 7.95,5.95 11.77,8.36 4.43,1.21 9.26,3.53 13.29,5.73 0.1,-0.19 0.2,-0.3 0.4,-0.4 4.13,0.4 7.75,2.12 11.98,1.71 4.53,1.22 9.35,-0.9 13.89,-0.5 4.22,-2.21 7.34,-2.01 8.76,3.22 1.8,1.11 6.53,5.44 6.53,7.25 1.51,0.3 2.82,1.2 2.82,2.81 1.11,0.51 1.91,0.81 2.21,1.92 1.52,0 6.55,4.83 6.55,6.44 0.4,0.1 0.9,0.2 1.41,0.4 1.61,2.22 5.33,3.43 6.34,6.04 3.62,1.41 6.34,6.24 10.46,7.35 0.31,1.41 0.7,1.51 2.32,1.71 1.4,2.22 3.92,3.83 6.44,4.32 2.61,2.93 7.55,3.83 9.76,6.75 0.21,-0.1 0.4,-0.1 0.61,-0.1 0.09,0.3 0.2,0.61 0.4,0.91 2.11,-0.51 3.32,0.9 4.62,2.21 0.31,-0.1 0.61,-0.1 1.01,-0.1 0.91,1.41 12.69,5.83 15.1,6.74 0,0.21 0.1,0.4 0.2,0.7 0.5,-0.09 1.01,-0.19 1.61,-0.3 3.13,2.02 9.66,2.12 11.88,4.33 4.63,0 9.56,3.32 14.19,3.32 1.81,0.71 5.43,0.61 6.54,1.72 2.01,0 3.93,0.2 6.04,1.4 0.2,-0.2 0.5,-0.4 0.81,-0.5 1.4,0.91 18.21,3.32 18.81,2.72 1.41,1.1 5.04,-0.2 6.04,1.61 0.41,-0.1 0.91,-0.21 1.41,-0.3 -1,-2.42 -2.11,-4.03 -4.12,-5.94 -1.11,-3.33 -5.44,-5.04 -5.44,-8.86 0.61,-0.2 2.42,0.2 2.62,0.5 1.41,-0.8 12.68,0.21 14.39,1.31 3.62,0.21 7.25,0.41 10.87,0.61 4.73,2.51 8.45,7.24 13.18,9.86 0.71,-1.31 2.01,-2.92 3.72,-2.92 0.51,-2.31 4.03,-3.83 4.03,-5.63 1.41,0.4 3.23,-3.32 5.14,-3.93 0.1,-0.4 0.19,-0.8 0.3,-1.1 3.22,-1.31 3.82,-4.84 7.04,-5.64 0.41,-1.11 0.41,-1.11 1.41,-2.42 -0.3,-1.21 -0.7,-1.41 -0.81,-2.41 -1.8,-0.21 -4.02,-1.61 -4.62,-3.43zm-105.78 -95.5l0 0c0.21,4.32 2.22,8.25 -1.81,11.27 -1.31,0.5 -2.62,1 -3.93,1.51 -0.7,-1.31 -2.01,-1.81 -2.81,-2.93 -1.11,-6.33 1,-11.17 8.55,-9.85zm-104.47 -132.25l0 0c0.1,-0.2 0.21,-0.4 0.31,-0.61 2.91,0 5.03,-2.92 7.95,-2.51 0,3.42 0,6.84 0.1,10.26 -1.41,2.12 1.5,2.12 -1.81,2.62l0 -0.6c-0.71,-0.21 -1.42,-0.31 -2.02,-0.4l0 -0.61c-1.2,-0.7 -1.51,-1.11 -3.02,-1.11 -1.81,-2.71 -7.15,-1.7 -7.75,-5.33 2.02,1.01 4.13,-1.01 6.24,-1.71zm13.59 -87.66l0 0c1.01,0.3 2.52,0 3.22,-0.71 7.35,-1.3 7.35,-1.3 10.16,-1.51 -0.19,3.02 -0.19,3.02 -0.9,4.94 0.1,0.1 0.2,0.3 0.4,0.49 -1.21,1.92 -0.7,4.33 -0.7,6.45 -2.52,2.51 -8.76,0.7 -12.58,1.91 -0.31,-0.2 -0.61,-0.4 -0.8,-0.6 -0.11,-3.13 -0.51,-8.66 1.2,-10.97zm-20.83 89.37l0 0 -1.01 0c-0.1,-0.21 -0.2,-0.4 -0.3,-0.51 -0.51,-0.1 -1.01,-0.1 -1.41,-0.1 -0.1,-0.7 -0.1,-1.3 -0.1,-1.91 0.91,0.91 2.41,1.31 2.82,2.52zm-4.33 -2.32l0 0c0.1,0 0.3,0.1 0.5,0.21 -0.2,0.1 -0.4,0.3 -0.5,0.5l0 -0.71zm-1.01 -1.31l0 0 0.61 0 0 0.61 -0.61 0 0 -0.61zm165.06 245.18l0 0 -0.71 0 0 -0.61 0.71 0 0 0.61zm40.36 -0.31l0 0c-0.11,0.41 -0.11,0.8 -0.11,1.31l-0.7 0c-2.21,-2.92 -6.14,-5.44 -9.06,-7.55l0 -0.7c2.22,-1.92 4.33,-6.04 6.95,-6.54 0.1,-0.6 0.4,-2.42 1.51,-2.12 1.11,3.53 7.44,4.94 8.45,8.96 -2.42,1.01 -4.13,5.43 -7.04,6.64z"/>
  <polygon class="fil3" points="441.57,563.6 441.57,564.01 441.88,564.01 441.88,563.6 "/>
  <path class="fil3" d="M469.05 560.58c1.21,-0.1 2.41,-0.1 3.72,-0.1 4.93,-3.92 2.92,-4.73 1.01,-9.96 -6.44,-2.52 -8.86,5.93 -4.73,10.06z"/>
  <polygon class="fil3" points="316.77,551.53 317.48,551.53 317.48,550.92 316.77,550.92 "/>
  <path class="fil3" d="M484.34 538.54c-5.33,1.71 -5.43,4.73 -3.82,9.67 0.4,0 0.81,0.1 1.21,0.19 -0.1,0.21 -0.21,0.51 -0.21,0.81 0.41,-0.3 0.92,-0.6 1.41,-0.9 0.41,0.2 0.91,0.39 1.41,0.69 0.61,-0.6 0.81,-0.69 1.92,-0.69 1.41,-1.72 1.41,-1.72 2.71,-4.03 -0.6,-3.02 -1.5,-4.73 -4.63,-5.74z"/>
  <polygon class="fil3" points="336.2,533.41 336.2,533.81 336.6,533.81 336.6,533.41 "/>
  <polygon class="fil3" points="437.24,521.33 437.24,521.03 436.84,521.03 436.84,521.33 "/>
  <path class="fil3" d="M315.36 492.95c-0.3,-0.1 -0.5,-0.2 -0.7,-0.31 -5.34,2.83 -9.86,6.65 -9.86,13.49 -0.3,0.3 -0.51,0.6 -0.71,0.91l0.5 0c0.81,1.31 1.11,3.42 1.81,4.93 0.31,0 0.61,0 0.91,0.1 1.32,2.22 3.42,3.12 5.43,4.63 8.36,-0.61 10.68,-2.41 15.51,-8.35 0.7,-5.43 0.7,-5.43 1.1,-6.24 -1,-1.82 -1.9,-7.65 -4.73,-7.65 -3.31,-2.22 -5.13,-2.82 -9.26,-1.51zm7.25 15.09l0 0c-1.2,1.21 -3.42,2.32 -5.03,3.12 -0.2,-0.19 -0.41,-0.3 -0.51,-0.4 -0.39,0.1 -0.7,0.3 -1,0.51 -5.13,-1.41 -5.23,-2.42 -5.53,-7.75 1.5,-5.04 8.05,-8.26 11.77,-3.62 0.5,0.19 1.01,0.39 1.51,0.7 0,2.51 -0.4,4.93 -1.21,7.44z"/>
  <path class="fil3" d="M377.76 492.64c-2.21,0.61 -8.85,2.32 -11.07,1.62 -2.62,2.62 -10.36,-0.4 -12.68,3.02 -1.51,0.2 -8.85,1.2 -10.06,0 -1.51,-0.1 -5.94,0 -6.54,-1.31 -1.52,1.11 -2.02,3.02 -3.13,4.63 0.21,0.2 0.41,0.5 0.71,0.8 0.2,-0.2 0.4,-0.3 0.7,-0.4 1.31,0.81 3.13,1.01 4.93,1.92 1.32,0.3 3.83,0.19 4.63,1 3.53,-0.1 11.78,0.2 14.1,-2.82 5.63,-1.81 14.39,-1.11 20.63,-1.01 2.11,-1.2 2.41,-3.72 2.01,-6.04 -1.2,-1.2 -2.82,-0.49 -4.23,-1.41z"/>
  <path class="fil3" d="M429.49 469.2c0.81,-1.91 1.71,-2.82 3.72,-2.82 0.11,-1.01 0.11,-1.01 1.42,-4.02l1.21 0c0,-0.41 0.09,-0.81 0.2,-1.11 3.62,-2.72 2.51,-8.36 7.54,-10.47 0.71,-3.13 5.84,-6.84 8.16,-9.06 -0.11,-1.41 -0.2,-2.72 -0.3,-4.02 -1.01,-0.71 -2.02,-1.42 -2.92,-2.12 -1.01,1 -1.71,2.01 -3.32,2.01 -1.11,1.52 -3.02,3.53 -3.02,5.54 -0.51,0 -0.91,0 -1.31,0.1 -0.1,0.5 -0.1,1.01 -0.1,1.51 -1.41,0.81 -1.41,0.9 -2.02,2.42 -2.41,0.8 -2.51,5.33 -5.03,6.14 0,2.92 -4.63,8.15 -6.24,10.16 -4.12,1.71 -7.05,3.93 -7.05,8.56l0.71 0 0 1c2.92,-0.4 5.54,-3.82 8.35,-3.82z"/>
  <path class="fil3" d="M617.9 378.11c-0.2,-0.3 -0.3,-0.6 -0.41,-0.9 0.31,-3.02 -0.6,-16.61 -1,-16.91 -1.41,-6.14 -2.02,-7.25 -2.02,-8.56 -2.2,-5.43 -5.83,-10.16 -8.35,-15.29 -2.31,-2.62 -7.04,-5.24 -8.05,-8.45 -3.52,-1.72 -6.24,-4.44 -9.16,-7.05 -2.01,0 -4.12,-1.31 -5.63,-2.42 -1.21,0 -6.34,-0.4 -6.75,-1 -3.02,-0.31 -17.51,-3.52 -20.62,-1.21 -0.21,-0.21 -0.41,-0.3 -0.51,-0.4 -8.55,0.8 -17.61,4.73 -25.06,8.65 -0.1,1.61 0,2.52 1.41,2.92 0.3,1.81 0.9,3.63 3.02,4.13 -0.1,0.4 -0.1,0.8 -0.1,1.3 3.02,1.22 5.03,3.23 7.04,5.74 2.12,0.81 2.92,2.32 5.14,2.92 0.3,1.21 1.91,2.32 3.22,2.32 0.1,0.3 0.2,0.6 0.4,1 4.93,2.42 9.66,7.25 14.99,7.85 -0.09,-0.3 -0.2,-0.6 -0.3,-0.8 0,-8.86 -0.3,-17.92 -0.71,-26.78 0.81,0.11 0.81,0.11 1.82,-0.6 4.53,0.81 11.07,-1.01 14.69,2.62 0.3,-0.1 0.61,-0.2 1.01,-0.31 3.42,2.12 7.55,3.23 9.76,6.65 2.92,1.41 6.55,5.94 7.75,8.86 0.11,-0.11 0.2,-0.11 0.41,-0.11 0.7,2.12 3.02,4.33 3.02,6.95 0.3,0 0.6,0 0.9,0.1 0.1,0.81 0.3,1.61 0.51,2.41 2.1,2.62 2.1,6.55 3.82,9.57 1,5.03 5.63,21.44 3.62,23.45 1.11,3.02 -0.3,17.81 -2.72,20.22 1.01,2.63 -1.5,5.24 -1.81,7.96 -0.3,0.1 -0.6,0.19 -0.81,0.3 0,7.04 -9.15,16.1 -12.17,22.14 -0.61,0.3 -1.21,0.6 -1.71,0.9 -0.41,1.61 -2.72,3.33 -3.83,5.14 -1.61,1.51 -4.02,2.62 -5.03,4.63 -0.4,-0.1 -0.7,-0.2 -1.01,-0.3 -0.6,0.6 -1.1,1.2 -1.6,1.9l-0.71 0c0.4,1.42 -2.12,2.32 -3.12,2.72 -0.1,0.21 -0.2,0.51 -0.2,0.81 -0.3,0 -0.6,0 -0.91,0.11 -0.4,1.3 -7.44,5.53 -9.26,5.53 -0.1,0.3 -0.19,0.6 -0.3,1 -1.51,0.41 -2.61,1.31 -4.22,1.51 -2.72,2.73 -10.68,3.33 -14.3,3.93 0,2.21 -0.3,4.33 1.91,5.44 2.22,-1.41 5.74,-1.71 8.36,-3.23 2.51,0 10.67,-3.41 11.47,-5.13 7.15,-1.51 12.48,-9.36 18.92,-12.38 1.31,-2.62 4.23,-4.12 5.84,-6.64l0.71 0c0.8,-2.12 3.21,-4.33 5.13,-5.74 2.11,-4.22 6.64,-7.84 7.95,-12.48 0.3,-0.1 0.6,-0.2 1.01,-0.2 0,-0.5 0,-1 0.09,-1.51 1.92,-0.91 3.53,-6.14 4.33,-8.26 0.91,-6.33 2.22,-12.48 3.33,-18.81 0.09,-1.21 -0.21,-9.26 0.8,-10.27 -0.2,-0.1 -0.41,-0.2 -0.5,-0.3 0,-1.91 -0.3,-4.02 0.5,-5.64zm-65.32 -44.98l0 0c-0.7,0.09 -1.41,0.2 -2.01,0.4 -0.81,-3.32 -5.64,-3.42 -6.34,-5.74 2.81,-0.5 5.64,-1 8.45,-1.51 0.21,1.31 -0.3,2.42 -0.1,6.85z"/>
  <polygon class="fil3" points="606.63,428.13 606.93,428.13 606.93,427.74 606.63,427.74 "/>
  <path class="fil3" d="M575.53 419.38c0.8,0.09 1.71,0.3 2.62,0.5 0.09,0.2 0.2,0.51 0.3,0.81 5.23,-0.81 10.16,-5.64 6.84,-11.17 -0.1,-0.41 -0.1,-0.81 -0.1,-1.21 -0.7,-0.21 -1.41,-0.31 -2.01,-0.4 -0.2,-0.41 -0.31,-0.81 -0.4,-1.22 -1.11,0.21 -2.22,-0.19 -3.02,-1 -6.85,3.02 -7.56,7.65 -4.23,13.69z"/>
  <path class="fil3" d="M579.86 396.23c1.51,0.1 1.51,0.1 2.31,0.7 0.61,-0.5 0.61,-0.5 2.72,-0.9 0.91,-0.81 1.81,-1.61 2.71,-2.42 1.82,-6.44 -0.7,-9.86 -6.94,-10.37 -2.31,1.11 -3.62,1.82 -5.13,3.93 0.1,0.2 0.3,0.4 0.5,0.61 -2.61,2.61 2.02,7.14 3.83,8.45z"/>
  <polygon class="fil3" points="517.36,389.19 517.36,389.49 517.76,389.49 517.76,389.19 "/>
  <path class="fil3" d="M476.6 370.57l0 1.81c-2.62,6.43 -0.2,10.16 4.83,14.29 0.09,-0.2 0.3,-0.3 0.5,-0.4 0.4,0.29 0.4,0.29 4.93,0.4 0.1,0.1 0.21,0.3 0.31,0.5 6.64,-1.81 9.55,-4.73 11.97,-11.37 -0.81,-7.85 -2.82,-10.27 -10.67,-12.38 -7.04,0.5 -7.55,3.93 -11.87,7.15zm4.22 2.82l0 0c0.21,-0.11 0.51,-0.21 0.81,-0.21l0 -0.9c0.81,-0.3 1,-1.01 3.32,-2.92 6.04,-1 7.85,2.62 7.04,8.55 -1.31,0.81 -2.91,2.52 -4.12,3.73 -0.4,-0.11 -0.8,-0.2 -1.21,-0.3 -0.4,0.9 -2.12,0.7 -3.12,0.8 -0.8,-1.01 -2.11,-1.71 -2.92,-2.92 0,-2.01 0.11,-3.92 0.2,-5.83z"/>
  <path class="fil3" d="M309.53 285.43c0,1.9 1.71,7.74 0.6,8.85 1.71,2.31 0.2,5.54 1.41,7.95 -1.3,2.62 1.2,5.94 0.3,8.76 0.71,0.7 0.6,3.62 0.6,4.52 1.62,2.02 -0.4,5.34 0.91,6.64 -0.2,1.61 -0.1,7.86 0.81,8.26 0.6,11.57 4.63,35.12 -11.48,38.34 -2.72,1.82 -23.85,5.34 -25.06,2.52 -5.63,-1.21 -10.47,-5.03 -14.59,-8.86 -0.1,-0.5 -0.1,-1.01 -0.1,-1.5 -0.3,-0.2 -0.51,-0.41 -0.7,-0.61 0,-1 0.1,-1.61 -0.61,-2.31 -0.2,-3.12 -0.3,-6.14 -0.4,-9.16 3.12,-9.76 6.24,-19.43 9.46,-29.09 -0.4,-0.4 -0.7,-0.8 -1,-1.21l-0.71 0c-1.21,2.62 -3.32,4.93 -3.72,7.86 -0.3,0.19 -0.51,0.4 -0.71,0.6 0.3,1.41 -2.52,6.84 -3.32,7.65 -1.52,8.25 -4.02,15.8 -4.33,24.35 -1,3.93 0.31,8.76 0,12.79 1.11,0.5 2.02,1.8 2.02,3.01 0.79,0.51 1.1,1.01 1.3,2.12 1.21,0.6 3.22,2.01 3.22,3.52 0.3,0 0.6,0 0.91,0.1 0,0.3 0,0.6 0.1,0.91 0.6,0.09 1.21,0.2 1.91,0.4 0.1,0.3 0.2,0.6 0.31,1 0.49,0.1 1.1,0.21 1.71,0.4 2.61,2.02 5.43,1.32 7.84,2.53 0.51,-0.21 1.01,-0.31 1.61,-0.41 0.1,0.2 0.21,0.5 0.4,0.81 4.74,-0.1 14,0.8 18.02,-1.21 3.33,0 11.98,-3.02 13.49,-5.34 4.73,-2.31 9.16,-9.35 10.87,-14.28 0.3,-2.12 0.3,-2.12 0.6,-24.97 -0.3,-0.1 -0.5,-0.2 -0.7,-0.3 -0.1,-4.13 -0.2,-8.25 -0.2,-12.38 -0.51,-3.82 -1.01,-7.64 -0.71,-11.47 -0.9,-0.6 -2.72,-25.67 -2.72,-26.47 -0.3,-0.2 -0.3,-2.62 -1,-6.14 0.3,-3.02 1.51,-4.33 4.13,-5.84 2.61,-2.62 1.61,-9.66 0.9,-13.18 -0.81,-1.01 -2.11,-1.41 -3.73,-2.72 -3.01,-0.7 -5.13,-4.63 -8.65,-4.63 0,2.02 -1.71,9.46 -0.9,10.27 -0.11,0.9 -0.11,0.9 -0.51,1.41 0.1,0.19 0.2,0.4 0.4,0.6 -1.3,2.72 0.2,14.09 2.02,15.91z"/>
  <path class="fil3" d="M388.84 348.62c-0.71,2.93 2.51,8.06 1.1,10.88 0.6,0.6 0.81,4.22 0.81,5.33 6.34,0.81 13.98,0.7 20.43,0.7 2.82,1.21 11.97,0.41 14.59,0.31 1.61,2.41 13.69,-0.91 16.61,1.4 1.2,-1.2 6.03,0 7.55,0.31 4.93,-0.51 10.97,-0.41 15.8,0.2 -0.51,-4.43 0.8,-9.36 1.2,-13.79 -1,-1.61 -3.52,-4.43 -5.53,-4.43 -0.1,-0.4 -0.2,-0.8 -0.31,-1.1 -0.3,-0.11 -0.5,-0.2 -0.7,-0.3l0 -0.91c-1.61,-0.3 -1.71,-0.61 -2.72,-1.92 -3.11,-2.71 -4.52,-3.62 -6.64,-6.94 -2.41,-1.2 -3.52,-3.83 -5.93,-5.23 -1.31,-2.62 -7.16,-9.06 -10.07,-10.17 -3.72,-5.03 -15.6,-4.32 -20.83,-4.43 -1.51,3.73 -3.73,9.26 -6.54,12.08 1,0.2 2.51,-0.1 3.02,1.01 0.09,-0.2 0.2,-0.3 0.39,-0.41 1.42,0.11 2.83,0.21 4.23,0.31 0.1,0.1 0.2,0.3 0.31,0.5 4.93,0 21.94,8.76 23.14,12.58 2.82,0.8 7.35,4.53 4.03,7.45 -1.31,-0.91 -10.77,-0.91 -13.69,-0.5 -0.5,-0.41 -0.5,-0.41 -5.94,-0.81 -2.21,0.9 -11.77,-0.3 -14.59,-0.71l-10.27 0c-0.09,-0.5 -0.2,-1 -0.2,-1.5 -2.52,-7.65 -3.01,-15.8 -4.73,-23.55 0,-3.02 -3.32,-20.24 -1.91,-21.65l-0.7 -0.7c-0.71,-11.47 -0.71,-11.47 -1.01,-12.47 0.1,-0.21 0.2,-0.41 0.41,-0.51 -0.71,-0.91 -0.92,-5.84 -0.41,-6.94 -0.81,-2.62 -0.7,-5.34 -0.7,-8.06 -0.41,-2.31 -0.81,-4.63 -1.11,-6.84 -0.8,1.51 -0.8,1.51 -1.91,2.31 0,0.1 -2.22,5.03 -2.32,5.84 0.71,5.03 2.92,14.9 1.31,19.83 1.81,4.63 -0.5,11.67 -0.3,16.9 -1.41,4.84 -2.72,9.77 -4.03,14.7 -1,1.11 -1,1.11 -2.41,4.03 -1.11,1.31 -3.33,3.11 -3.33,5.03 -1.1,0.71 -1.6,0.9 -1.9,2.31 -2.12,1.01 -3.13,3.52 -5.44,3.93 -0.6,2.52 -4.84,3.52 -6.34,5.84 -3.02,0.6 -6.24,3.02 -8.76,4.93 -0.3,-0.2 -0.51,-0.3 -0.7,-0.41 -1.71,1.21 -2.22,2.32 -4.73,2.32 -0.2,0.2 -0.41,0.4 -0.5,0.7 -5.84,2.82 -12.08,5.03 -17.92,7.45 -0.2,1.51 -0.4,3.02 -0.6,4.63 3.32,0 3.32,0 4.12,0.4 2.52,0 5.84,-1.11 7.75,0.81 0,-0.4 0.1,-0.7 0.2,-1 0.41,0 6.95,0 7.65,-0.71 5.14,-0.71 9.26,-2.31 14.09,-4.13 0.9,-1.11 0.9,-1.11 6.04,-4.43 0.41,-0.8 3.02,-3.32 5.23,-4.93 0.61,-1 0.51,-1.61 1.81,-2.01 0.41,-1.82 -1.5,-0.71 1.62,-2.42 0.7,-2.31 3.42,-4.63 3.42,-6.74 2.72,-4.13 4.63,-9.46 7.45,-13.69 0.3,0.3 0.3,0.3 -0.11,6.85 0,0.71 0.91,11.87 1.52,12.47z"/>
  <path class="fil3" d="M232.33 338.66c-3.12,-1.41 -3.12,-1.41 -3.52,-2.01 -2.51,-0.1 -7.85,-0.6 -9.06,1.81 -6.13,3.02 -10.56,16 -1.91,18.82 0.41,1.21 1.82,1.71 3.02,2.02 2.31,-0.11 8.35,-0.41 9.46,-2.62 4.84,-1.21 5.23,-9.06 5.44,-13.18 -0.81,-0.51 -0.91,-1.41 -1.01,-2.42l-2.42 -2.42zm-6.74 14.09l0 0c-1.51,0.1 -3.02,0.3 -4.43,0.51 -7.05,-2.62 -3.92,-7.45 -1.2,-11.88 2.61,-0.81 5.13,-1.91 7.75,-0.3 1.2,1.71 1.2,1.71 1.8,2.01 0,1.71 0,3.43 0.11,5.23 -1.31,1.01 -3.32,3.02 -4.03,4.43z"/>
  <polygon class="fil3" points="340.62,356.68 340.62,356.28 340.22,356.28 340.22,356.68 "/>
  <polygon class="fil3" points="474.78,356.68 474.78,356.28 474.48,356.28 474.48,356.68 "/>
  <path class="fil3" d="M492.7 342.49c-0.81,-1.11 -3.73,-5.44 -2.62,-6.85 -1.91,-2.42 -0.4,-5.73 -1.11,-8.05 0,-6.54 0.41,-18.82 -4.63,-23.85 -0.4,-1.21 -0.8,-2.42 -1.1,-3.62 -0.31,-0.11 -0.5,-0.21 -0.71,-0.3 0.3,-1.12 -0.6,-2.02 -1.31,-2.62 0.3,-1.01 -1.2,-4.43 -1.2,-6.04 -2.62,-3.23 -1.52,-12.99 1.31,-15.8 -0.11,-0.41 -0.2,-0.71 -0.3,-1.01 4.52,-4.53 -0.51,-7.65 -5.04,-5.24 -1.3,1.42 -2.61,2.83 -3.83,4.33 -3.01,0.61 -6.43,5.24 -8.65,7.25 -0.2,1.41 -0.2,1.41 -0.7,1.71 0,2.11 -1.11,7.05 -2.02,8.96 0.11,0.2 0.21,0.4 0.41,0.7 -0.71,4.63 0.5,6.15 1.51,10.27 1.1,-0.3 3.41,3.72 5.94,4.43 3.11,3.12 7.34,-0.2 10.06,-1.91 6.14,-0.41 7.55,11.17 6.84,15.59l0.91 0c0,1.11 -0.51,5.95 -0.91,6.14 0.21,0.21 0.51,0.41 0.81,0.61 -0.3,0.4 -0.3,0.4 -0.9,6.84 -2.72,2.22 -1.92,4.33 -3.13,7.45 -0.2,2.51 0.3,4.93 0,7.25 0.2,0.2 0.41,0.4 0.71,0.6 -0.21,1.92 0.8,5.03 2.81,5.63 5.54,-2.71 8.46,-6.64 6.85,-12.47zm-22.64 -41.17l0 0c-2.02,-1.5 -4.24,-2.21 -4.73,-5.03 -0.31,-0.1 -0.61,-0.2 -0.81,-0.3 -1.11,-6.24 2.01,-10.67 8.25,-9.46 0,0.2 0.1,0.5 0.2,0.8l0.91 0c4.23,4.73 2.92,12.08 -3.82,13.99z"/>
  <polygon class="fil3" points="532.46,351.25 532.46,351.64 532.85,351.64 532.85,351.25 "/>
  <path class="fil3" d="M349.79 292.97c2.01,-2.01 7.55,-2.81 7.55,1.31l1.3 0c0,0.4 0.1,0.81 0.2,1.31 0.3,0.2 0.61,0.4 1.01,0.6 0.5,2.32 3.02,4.03 3.02,6.24 4.33,2.52 5.74,11.58 10.06,14.79 0,1.31 1.31,2.02 1.91,3.22l2.01 0c0,-1.3 0,-2.61 0.11,-3.82 -0.2,-3.52 -2.02,-6.54 -2.02,-9.76 -2.61,-1.91 -3.22,-10.17 -5.73,-11.37 -0.3,-1.52 -1.71,-2.01 -2.01,-3.73 -2.22,-0.7 -1.82,-3.83 -3.83,-4.43 -0.61,-2.41 -5.03,-5.23 -4.83,-7.64 -4.93,-4.03 -9.87,-8.16 -15.6,-11.18 -0.2,-0.3 -0.4,-0.6 -0.5,-0.8 -2.52,-0.2 -8.46,-3.42 -10.17,-1.31 1.01,4.03 -1.61,8.05 1.01,11.98 0.3,2.91 1.3,3.42 2.41,6.24 3.52,1.41 6.95,6.14 9.47,9.05 2.11,0 2.11,0 4.63,-0.7z"/>
  <path class="fil3" d="M490.89 225.94c-1.11,1.31 -1.71,1.82 -2.12,3.42 -0.5,0.1 -1,0.2 -1.4,0.31 -0.51,0.9 -1.01,1.91 -1.52,2.91 -3.22,2.12 -9.25,9.67 -13.08,9.67l0 -1.32c-2.51,-1.5 -3.93,-4.32 -6.14,-6.34 -0.7,2.62 -1.41,5.24 -2.11,7.96 0.7,1.91 -1.41,15.79 1.11,17.01 1.41,-0.61 4.32,-2.32 4.82,-3.83 1.52,-0.3 5.34,-3.62 5.95,-4.93 0.3,0.1 0.6,0.2 1,0.3 1.01,-0.81 1.01,-3.22 3.22,-2.91 1.01,-0.81 1.01,-0.81 1.41,-1.92l1.51 0c0,-0.5 0,-0.9 0.1,-1.31 0.4,-0.2 0.81,-0.3 1.21,-0.4 0,-0.3 0,-0.61 0.1,-0.91 0.9,-0.6 1.91,-1.1 2.92,-1.61 6.13,-7.34 14.99,-12.78 22.75,-18.22 1.6,1.62 2.71,3.13 5.03,3.43 1.91,2.72 1.91,2.72 2.61,3.02 -0.1,0.9 -0.1,0.9 0.3,1.71 0.3,0.1 0.71,0.2 1.11,0.3 -0.1,0.41 -0.1,0.91 -0.1,1.41 0.3,0.2 0.71,0.41 1.11,0.71 -0.4,0.9 4.93,10.46 5.94,11.97 -2.12,2.22 -3.93,5.33 -6.75,6.74 -0.8,2.62 -3.72,2.72 -4.93,5.14 -0.4,0.09 -0.81,0.2 -1.11,0.3 -0.1,0.2 -0.19,0.4 -0.19,0.71 -1.62,0.2 -2.93,0.8 -3.32,2.21 -5.65,2.41 -11.28,5.23 -17.32,6.44 -2.11,-2.82 -3.12,-6.44 -2.72,-10.06 -0.3,-0.41 -0.3,-1.31 -2.31,-5.74l-0.9 0c-0.91,1.21 -3.13,6.23 -2.02,7.35 -0.6,1 0.41,2.52 -0.81,3.12 0.1,6.04 -0.3,6.74 -0.2,8.45 -0.8,1.21 -0.9,4.93 -0.4,6.44 -0.9,1.31 0,3.12 0.1,4.63 -0.2,0 -0.4,0.1 -0.6,0.2 1.2,0.81 1.31,7.65 1.51,9.06 0.3,0.1 0.6,0.2 0.9,0.3 1.41,-0.7 1.41,-0.7 2.32,-1.91 4.93,-1.61 5.33,-4.63 10.27,-1.82 0.5,4.54 -0.81,11.78 -1.12,15.91 1.52,2.42 2.32,4.43 4.33,6.44 1.41,3.63 4.23,4.43 7.65,5.74l0 0.7c0.61,-0.5 1.21,-0.91 1.81,-1.31 -0.3,-1.8 -1,-3.11 -1.71,-5.94 -0.9,-1.5 -2.01,-2.81 -2.01,-4.62 -3.52,-4.73 1.01,-5.94 1.01,-10.17 0.2,-0.2 0.4,-0.3 0.7,-0.4 -0.1,-0.41 -0.1,-0.71 -0.1,-1.01 1.31,0 6.65,0.51 7.45,-0.3 2.92,0.4 6.84,0 9.66,-0.31 2.62,0.2 11.07,1.12 13.48,-0.29 4.84,0.29 21.65,-1.91 21.14,1.81 1.01,1.2 1.31,1.81 1.31,3.32 0.91,0.9 0.91,0.9 1.81,2.82 1.91,0.3 3.83,0.7 5.84,1.1 0.2,-0.4 0.4,-0.8 0.61,-1.1 -0.71,-1.11 -3.63,-6.14 -4.94,-6.14 -1.21,-2.22 -1.81,-4.43 -4.02,-5.74 -0.1,-0.6 -0.21,-1.21 -0.21,-1.71 -2.11,-1.71 -6.74,-15.09 -6.14,-17.11 -1.1,-1.11 -1.31,-2.01 -1.31,-3.62 -1.4,-1.81 -2.51,-4.63 -3.01,-6.85 -0.3,-0.1 -0.5,-0.2 -0.71,-0.2 -0.6,-1.81 -2.11,-3.93 -1.61,-5.63 -0.5,-0.51 -0.9,-1.01 -1.31,-1.41 -1.81,-3.93 -7.94,-18.82 -11.27,-19.93 -0.1,-0.6 -0.2,-1.21 -0.2,-1.71 -3.62,-2.51 -4.33,-7.15 -7.35,-9.76 -2.72,0 -6.23,-7.65 -8.75,-9.26 -0.41,-1.92 -5.23,-6.74 -6.75,-7.04 -0.09,-0.51 -0.2,-1.01 -0.3,-1.42 -0.3,-0.1 -0.6,-0.1 -0.8,-0.1 -1.11,2.12 -2.82,4.02 -3.12,4.93 -3.73,1.41 -4.84,6.24 -8.16,8.46 -3.11,3.82 -4.12,4.43 -8.55,9.96 -0.2,-0.1 -0.4,-0.1 -0.6,-0.1zm41.96 37.14l0 0c-0.09,0.2 -0.2,0.4 -0.2,0.7 2.32,1.71 4.33,3.43 4.33,6.75 0.3,0.1 0.6,0.2 1.01,0.4 -0.1,0.3 -0.2,0.6 -0.3,0.9 1.81,1.22 4.12,10.37 3.92,12.79 -0.7,0 -1.41,0.1 -2.11,0.2 -0.1,-0.31 -0.21,-0.61 -0.21,-0.81 -0.7,0.2 -1.4,0.5 -2.1,0.81 -1.41,-0.71 -3.33,-0.2 -4.43,-0.91 -0.61,0.6 -14.3,-0.4 -15.3,-1.01 -0.2,0.11 -0.41,0.21 -0.5,0.41 -2.42,-1.61 -6.15,0.3 -9.06,-1.11 -1.11,0.4 -1.11,0.4 -3.23,0.3 0.51,-3.32 5.54,-8.55 8.66,-9.66 -0.1,-0.4 -0.1,-0.8 -0.1,-1.1 1.71,-1.11 2.01,-1.82 3.12,-2.22 2.62,-3.92 11.98,-7.35 16.5,-6.44z"/>
  <polygon class="fil3" points="542.92,315.41 542.92,315.01 542.52,315.01 542.52,315.41 "/>
  <path class="fil3" d="M156.45 309.47c0.1,0.11 0.2,0.3 0.3,0.51l1.01 0c-0.41,-1.21 -1.91,-1.61 -2.82,-2.52 0,0.61 0,1.21 0.1,1.91 0.4,0 0.9,0 1.41,0.1z"/>
  <path class="fil3" d="M153.93 307.87c-0.2,-0.11 -0.4,-0.21 -0.5,-0.21l0 0.71c0.1,-0.2 0.3,-0.4 0.5,-0.5z"/>
  <polygon class="fil3" points="153.03,306.35 152.42,306.35 152.42,306.96 153.03,306.96 "/>
  <path class="fil3" d="M559.93 256.74c0.1,0.5 0.2,1.11 0.3,1.71 2.72,2.72 3.73,6.44 5.44,9.96 1.5,0.91 2.91,2.92 2.72,4.73 1.3,1.11 2.21,2.32 2.71,4.03 3.52,1.11 4.02,13.18 5.23,16.4 1.42,0.1 1.42,0.1 3.13,0.71 0.09,-0.1 0.3,-0.2 0.5,-0.31 0.6,-3.62 1.11,-8.45 -0.41,-11.87 0.1,-0.4 0.21,-0.81 0.31,-1.11 -1.11,-1.6 -1.51,-2.61 -1.71,-4.53 -0.4,-0.09 -0.71,-0.09 -1.01,-0.09 -0.1,-0.91 -0.3,-1.31 -0.91,-1.92l0 -1.81c-0.4,-0.1 -0.8,-0.2 -1.11,-0.3 -0.6,-2.62 -3.11,-4.63 -4.93,-6.74 0.61,-0.81 -2.21,-7.26 -3.02,-8.26 0,-3.32 -2.72,-6.24 -4.42,-8.85 -1.81,-0.21 -3.02,0.19 -4.64,0.6 -0.3,2.21 -0.4,6.54 1.82,7.65z"/>
  <path class="fil3" d="M239.58 260.36c0,-0.61 0,-1.1 0.1,-1.61 1.41,-0.41 4.93,-4.22 4.93,-5.74 -0.71,0.1 -0.71,0.1 -4.43,-1.61 -0.6,0.71 -0.6,0.71 -0.8,2.22 -1.01,1 -3.02,4.33 -3.02,5.73 -2.12,0.91 -4.23,0.91 -6.54,0.91 -0.61,-2.22 -4.83,-8.15 -6.95,-9.36 -0.1,-0.61 -3.12,-5.83 -3.62,-6.04 -0.81,-4.23 -7.45,-4.53 -10.87,-4.63 0.91,2.02 4.43,7.45 6.54,8.45 1.01,2.12 4.23,3.23 4.23,5.64 0.4,0 0.81,0 1.21,0.1 1.21,1.72 6.54,6.95 3.62,9.16 0.3,0.61 0.3,0.61 0,4.93l2.01 0c0.8,-1.1 1.72,-2.21 2.62,-3.32 2.82,1.41 1.01,4.23 1.82,6.85 -0.71,1.01 -1.32,2.11 -1.92,3.22 -1.31,0 -1.72,-0.71 -2.52,-1.51l0 -1.11c-0.9,-0.4 -1.3,-1.41 -2.31,-1.41 0,3.62 2.92,6.34 5.83,8.55 1.11,-0.9 2.52,-3.72 3.02,-4.12 1.71,0 2.52,2.11 3.73,3.02 0.7,-0.51 1.41,-1.01 2.11,-1.41 0.3,-1.91 -0.6,-8.16 0,-8.76 -0.3,-2.72 0.11,-5.33 0.3,-8.05 0.3,-0.1 0.61,-0.1 0.91,-0.1z"/>
  <polygon class="fil3" points="454.35,274.15 454.65,274.15 454.65,273.75 454.35,273.75 "/>
  <path class="fil3" d="M455.76 238.42c-0.9,-0.4 -0.9,-0.4 -3.72,-3.02 -12.48,-2.11 -10.37,14.09 -8.66,21.24 -4.02,3.02 -1.91,8.85 -1.3,12.78 2.11,1.31 2.61,2.52 5.13,3.12 0.1,0.4 0.2,0.81 0.4,1.21 0.5,-0.2 1.1,-0.4 1.71,-0.51 9.16,3.43 9.36,-13.38 7.55,-18.01 0.1,-0.61 0.2,-1.11 0.3,-1.61 3.12,-4.23 0.6,-11.07 -1.41,-15.2zm-2.31 28.38l0 0c-1.41,0.71 -2.52,0.81 -3.83,1.31 -0.8,-0.6 -0.8,-0.6 -1.81,-0.6 -0.1,-0.51 -0.2,-1.01 -0.3,-1.41 -3.62,-2.42 -0.81,-9.77 4.23,-7.95 1.11,1.51 1.11,1.51 2.31,2.41 0.1,2.02 0.1,2.02 -0.6,6.24zm1 -15.4l0 0c-1.3,0.91 -1.9,1.61 -3.52,1.92 -2.92,-1.72 -4.93,-3.43 -5.83,-6.74 0.29,-4.13 0.8,-7.85 5.83,-7.85 0.91,0.49 1.81,1 2.72,1.5 0,0.31 0,0.61 0.1,0.91 0.3,0.1 0.6,0.2 1,0.3 0.71,3.42 0.71,3.42 0.71,5.94 -1.01,1 -0.9,2.51 -1.01,4.02z"/>
  <polygon class="fil3" points="342.64,266.1 342.24,266.1 342.24,266.4 342.64,266.4 "/>
  <path class="fil3" d="M382.29 224.74c-3.52,-4.73 -6.84,-6.45 -13.08,-5.84 -1.11,1.71 -4.23,1.5 -5.14,3.32 -6.53,4.53 -4.02,7.75 -4.62,14.29 0.4,0.5 0.81,1 1.21,1.51 0.5,3.02 3.32,3.22 5.73,4.93 1.51,-1.01 6.04,-0.6 7.55,-0.6 7.35,-3.62 9.66,-9.47 8.35,-17.61zm-4.13 5.12l0 0c-0.19,0 -0.4,0.11 -0.6,0.21 0,0.4 0,0.9 0.1,1.41 -2.52,2.71 -2.52,2.71 -3.22,3.01l0 0.71 -0.6 0 0 0.7c-1.31,0 -1.81,-0.1 -3.02,0.61 -3.12,-0.4 -3.92,-0.91 -6.14,-2.82l0 -2.31c-0.2,-0.11 -0.4,-0.21 -0.61,-0.21 0,-3.02 1.11,-3.41 1.82,-5.53 0.9,-0.4 1.11,-1.01 1.41,-1.91 2.11,-1.01 4.22,-2.02 6.64,-1.71 1.2,0.9 1.2,0.9 2.91,1.41 0,2.41 1.52,3.52 1.31,6.43z"/>
  <path class="fil3" d="M344.55 218.9c0.2,1.91 1.71,6.14 3.52,7.34 0.91,-0.1 1.82,-0.2 2.72,-0.3 0.51,-0.9 1.11,-2.21 2.42,-2.01 2.31,-1.51 4.02,-6.55 6.24,-8.76 1,-3.32 2.22,-5.63 4.42,-8.05 -0.1,-0.2 -0.19,-0.41 -0.3,-0.6 1.91,-2.92 3.82,-6.34 5.14,-9.46 3.52,-5.34 7.54,-11.07 10.76,-16.51l0.71 0c0.61,-1.91 2.31,-5.03 4.73,-5.03 0.4,1.81 1.21,3.32 1.81,5.03 1.21,8.05 1.41,16.2 2.82,24.15 -0.2,0 -0.4,0.11 -0.61,0.21l0.3 2.11 0.71 0c-0.6,3.62 0.81,6.95 0.4,10.36 1.52,1.52 2.42,15.5 2.32,19.23 1.3,0.81 1.41,1.21 1.61,2.61 0.7,0.21 1.51,0.41 2.31,0.71 3.32,-0.5 4.64,-0.4 7.15,-2.92 1.41,-4.02 5.43,-10.17 5.43,-14.39 -1.2,-0.1 -2.41,-0.1 -3.62,-0.1 -0.1,0.1 -0.2,0.3 -0.3,0.51 -1,-0.11 -2.01,-0.21 -2.92,-0.21 -1.21,-2.62 -1.21,-2.62 -2.21,-3.73 -0.81,-3.32 -8.76,-25.86 -5.94,-28.68 -0.3,-0.4 -0.61,-0.7 -0.81,-1 0.71,-1.01 0.51,-2.52 -0.3,-3.32 0.71,-1.41 0.3,-9.46 0.3,-11.47 0.71,-1.52 0.71,-1.52 0.71,-3.13 3.42,-5.03 8.15,-9.46 13.68,-11.97 1.31,-1.91 2.62,-3.02 4.54,-4.13 -0.51,-1.01 1.71,-2.01 2.21,-2.31 1,-2.22 2.91,-4.03 3.32,-6.65 -1.51,-0.3 -2.42,-0.4 -3.62,-1.3 -6.24,0 -12.68,-3.63 -19.23,-4.03 -0.9,-0.91 -18.82,-4.43 -21.03,-3.32 0,0.9 0,0.9 -0.4,1.61 0.1,0.1 0.2,0.3 0.4,0.5 0,4.83 2.21,9.36 3.42,13.99 1.61,2.51 5.94,11.87 2.32,13.69 -1.31,3.62 -4.94,5.84 -6.14,9.56 -2.12,1.81 -3.43,6.14 -5.44,7.14 -0.1,0.3 -0.1,0.61 -0.1,0.91 -1.21,0.81 -2.31,1.61 -3.42,2.52 -0.6,1.8 -5.23,8.55 -7.24,8.55 -0.61,3.33 -5.74,3.93 -5.74,6.65 -0.51,0 -0.91,0 -1.31,0.09 -0.1,0.3 -0.2,0.61 -0.2,0.92 -3.02,1.3 -5.84,3.61 -8.86,4.42 0.5,3.72 1.51,6.95 2.31,10.57l1.01 0zm63.11 -70.56l0 0c0.09,0 0.3,0.11 0.5,0.2 -0.2,0.1 -0.41,0.21 -0.5,0.41l0 -0.61zm-17.82 0.11l0 0c4.12,0.5 8.25,1.81 12.28,2.41l0 1.21c-3.43,2.91 -5.93,6.54 -9.66,9.36 -0.1,0.3 -0.21,0.6 -0.21,1l-1 0c-0.91,-1.31 -2.72,-12.68 -1.41,-13.98z"/>
  <path class="fil3" d="M320.6 154.19c0.5,0.7 0.71,2.61 1.31,3.92 -0.71,4.93 1.71,10.26 2.01,15.3 0.81,4.32 2.01,10.06 1.31,14.49 0.51,2.82 2.01,20.43 0,22.44 0.1,0.1 0.3,0.21 0.51,0.4 0,3.32 -3.03,5.14 -5.54,7.05 0.6,3.22 5.13,6.44 5.13,9.16 2.51,0.6 4.63,6.54 6.64,8.55 0,1.61 1.61,3.23 2.92,4.03 3.22,-0.91 -0.5,-30.6 0.4,-35.73 -0.2,-0.2 -0.6,-12.59 0.1,-13.29 -1.71,-9.56 -1.11,-20.13 -1.71,-29.79 0.11,-0.2 0.2,-0.4 0.41,-0.5 -0.91,-1.21 0.1,-2.92 -1.11,-4.13 -0.51,-7.55 -1.01,-15.09 -1.41,-22.54 -1.11,-0.2 -1.11,-0.2 -5.23,0.1 0,-0.3 0.1,-0.6 0.2,-0.81 -1.92,0.51 -5.84,0.51 -8.36,1.01 0.11,0.1 0.3,0.21 0.51,0.4 0.3,5.85 2.81,15.1 1.91,19.94zm13.59 80.71l0 0 0.39 0 0 0.3 -0.39 0 0 -0.3z"/>
  <polygon class="fil3" points="334.58,234.9 334.19,234.9 334.19,235.2 334.58,235.2 "/>
  <polygon class="fil3" points="342.94,232.48 342.94,232.88 343.24,232.88 343.24,232.48 "/>
  <path class="fil3" d="M412.59 193.14c-0.4,4.42 4.73,8.45 8.45,10.26 0.8,2.91 6.14,5.23 8.86,5.84 0.1,0.2 0.2,0.5 0.3,0.8 0.8,-0.2 0.8,-0.2 2.61,0.3l0 0.7c1.21,-0.19 1.21,-0.19 3.03,0.31 4.82,-0.8 13.18,0.3 16.6,-4.13 0.41,-7.25 0.41,-7.25 0.81,-7.75 -0.91,-2.21 -1.01,-4.73 -1.21,-7.14 0.2,-0.11 0.4,-0.2 0.6,-0.31 -0.2,-0.1 -0.4,-0.19 -0.6,-0.19 -0.3,-2.12 -1.61,-4.33 -1.61,-6.65 3.02,-2.11 10.87,6.44 14.19,7.55 0.1,0.5 0.2,1.01 0.4,1.51 2.72,0.91 2.92,0.6 5.13,2.92 0.51,0.1 1.01,0.2 1.52,0.3 0.09,0.41 0.19,0.8 0.4,1.2 0.4,0 0.8,0 1.31,0.11 0.7,1.41 3.72,2.51 5.23,3.02 3.12,-2.32 14.39,-1.21 16.1,-4.63 -1.11,-0.71 -1.71,-1.82 -3.02,-2.62 -0.1,-0.5 -0.1,-0.91 -0.1,-1.31 -2.62,-0.5 -6.24,-3.82 -7.75,-5.94 -0.91,0.41 -7.14,-5.83 -8.96,-5.83 -0.4,-1.21 -1.2,-1.51 -2.41,-1.71 -1.31,-2.02 -2.62,-2.62 -4.73,-3.83 -3.73,-4.33 -10.16,-6.64 -14.59,-10.66 -1.82,0 -8.25,2.01 -9.57,3.31l-1.91 0c-2.61,2.62 -7.35,1.62 -6.64,5.94 0.2,0.11 0.41,0.2 0.6,0.3 0.71,2.32 0.71,2.32 0.71,3.83 3.02,2.62 1.51,12.18 1.3,14.89 -4.52,5.44 -10.56,4.94 -17.1,3.02 -0.11,-0.3 -0.2,-0.6 -0.31,-0.8 -3.01,-0.91 -4.12,-1.21 -6.33,-3.42 -0.51,0.2 -0.91,0.5 -1.31,0.81z"/>
  <path class="fil3" d="M282.15 156.3c-0.9,-0.21 -0.9,-0.21 -1.4,0.3 -0.91,-0.1 -0.91,-0.1 -2.42,0.3 -1.31,1.31 -12.59,5.34 -14.99,5.34 -4.43,2.01 -5.85,3.12 -8.97,4.62 -2.71,0.3 -5.33,1.61 -7.24,3.52 -0.91,3.63 -3.42,9.06 -1.21,12.69l1.71 0c3.72,-2.72 11.47,-2.22 15.8,-2.02 1.11,0.41 2.22,0.81 3.32,1.32 1.41,1.71 2.82,3.42 4.33,5.23 -0.2,1.1 -0.1,1.4 0.5,2.31 0,6.95 -8.55,8.05 -12.97,11.58 -0.51,-0.11 -0.51,-0.11 -1.72,0.49 0,2.12 0.31,3.03 0.8,4.73 5.04,-1 10.68,-1.6 15.31,-3.92 4.62,0.5 11.26,-2.82 14.18,-6.34 2.72,-1.3 5.24,-6.14 5.95,-9.26 0,-6.14 -7.66,-8.05 -12.19,-9.86 -0.4,0 -0.8,0 -1.1,0.1 -0.2,-0.4 -0.4,-0.8 -0.61,-1.1l-2.42 0c-0.19,-0.3 -0.4,-0.51 -0.49,-0.71 -2.22,-0.1 -3.63,-0.6 -5.54,-1.11 0.7,-1.2 10.67,-4.13 12.58,-4.13 5.63,-2.81 13.69,-2.61 19.12,-5.83 2.32,-4.03 2.51,-11.07 3.43,-15.7 0,0 -22.75,5.34 -23.76,7.45z"/>
  <path class="fil3" d="M247.33 156.2c0.1,0.1 0.2,0.3 0.3,0.49 1.51,-0.7 6.95,-0.9 7.35,-1.5 3.12,-0.81 6.24,-4.23 9.16,-4.23l0 -0.91c3.62,-0.7 6.54,-6.34 10.77,-7.04 0.81,-2.42 8.75,-4.33 10.46,-3.52 0.1,-0.2 0.31,-0.3 0.5,-0.4 2.22,0.1 4.43,0.2 6.75,0.3 1.11,-1.41 1.51,-2.52 1.71,-4.53 -2.31,-0.1 -16.81,-2.11 -17.82,-0.5 -7.94,1.71 -10.77,8.75 -17.9,11.77 -3.63,3.62 -18.63,1.72 -14.5,9.96 1.01,0 2.11,0 3.22,0.11zm43.58 -19.33l0 0 0.7 0 0 0.4 -0.7 0 0 -0.4z"/>
  <path class="fil3" d="M408.16 148.54c-0.2,-0.09 -0.41,-0.2 -0.5,-0.2l0 0.61c0.09,-0.2 0.3,-0.31 0.5,-0.41z"/>
  <polygon class="fil3" points="291.61,136.87 290.91,136.87 290.91,137.27 291.61,137.27 "/>
 </g>
</svg>
